<svg width="90" height="86" viewBox="0 0 90 86" fill="none" xmlns="http://www.w3.org/2000/svg">
<path d="M32.88 73.59C32.67 73.81 32.46 74.04 32.25 74.26C32.04 74.48 31.84 74.71 31.63 74.93C31.61 74.95 31.59 74.97 31.56 75.01C31.53 75.04 31.51 75.07 31.49 75.09C31.39 75.2 31.29 75.31 31.19 75.42C31.09 75.53 30.99 75.64 30.89 75.75C30.62 76.03 30.36 76.31 30.1 76.6C29.84 76.88 29.59 77.17 29.35 77.45C29.35 77.47 29.33 77.49 29.31 77.5C29.29 77.51 29.28 77.53 29.27 77.55C29.2 77.61 29.13 77.69 29.06 77.78C28.99 77.87 28.93 77.95 28.85 78.04C28.75 78.18 28.64 78.32 28.53 78.45C28.42 78.59 28.31 78.72 28.19 78.85C28.19 78.9 28.17 78.94 28.12 78.97C28.07 79 28.03 79.04 27.99 79.09C27.93 79.15 27.88 79.21 27.82 79.29C27.68 79.47 27.52 79.66 27.35 79.88C27.18 80.1 27.02 80.31 26.87 80.52C26.72 80.73 26.6 80.93 26.51 81.13C26.41 81.33 26.36 81.49 26.36 81.62C26.36 81.72 26.38 81.81 26.43 81.88C26.48 81.95 26.54 82 26.61 82.04C26.68 82.08 26.76 82.1 26.85 82.12C26.94 82.13 27.02 82.14 27.1 82.14C27.53 82.14 27.92 82.07 28.27 81.92C28.62 81.78 28.95 81.58 29.27 81.34C29.42 81.23 29.56 81.12 29.68 81C29.8 80.88 29.9 80.8 29.97 80.73H29.98C29.98 80.73 29.98 80.73 29.99 80.73C30.05 80.73 30.07 80.76 30.07 80.81C30.07 80.84 30.07 80.86 30.04 80.88H30.05C30.05 80.88 29.97 80.94 29.95 80.96C29.89 81.36 29.8 81.76 29.66 82.17C29.53 82.58 29.34 82.95 29.09 83.28C28.85 83.62 28.54 83.89 28.17 84.11C27.8 84.33 27.35 84.44 26.84 84.45C26.6 84.45 26.33 84.4 26.04 84.31C25.75 84.22 25.46 84.12 25.16 84.02L24.91 83.94C24.69 83.87 24.47 83.8 24.27 83.74C24.06 83.68 23.87 83.64 23.7 83.63C23.38 83.61 23.15 83.7 22.99 83.88C22.83 84.06 22.76 84.27 22.76 84.5C22.76 84.79 22.85 84.99 23.03 85.12C23.22 85.21 23.44 85.26 23.7 85.26C23.89 85.26 24.08 85.22 24.29 85.16C24.5 85.09 24.72 84.98 24.96 84.82V85C24.8 85.16 24.61 85.28 24.39 85.38C24.17 85.47 23.97 85.52 23.78 85.52C23.55 85.52 23.36 85.48 23.21 85.39C22.8 85.21 22.59 84.89 22.59 84.44C22.59 84.19 22.67 83.93 22.84 83.66C23.01 83.39 23.26 83.15 23.6 82.93C23.73 82.85 23.87 82.8 24.02 82.77C24.17 82.74 24.31 82.72 24.45 82.72C24.71 82.72 25 82.76 25.33 82.85C25.66 82.94 25.95 83.01 26.22 83.09C26.45 83.16 26.69 83.23 26.93 83.3C27.17 83.36 27.39 83.41 27.6 83.43C28.21 83.48 28.69 83.3 29.04 82.91C29.39 82.52 29.66 81.91 29.85 81.08L29.74 81.17C29.74 81.17 29.69 81.21 29.67 81.23C29.31 81.53 28.89 81.78 28.42 81.99C27.95 82.2 27.47 82.31 27 82.31C26.3 82.31 25.95 81.96 25.95 81.27C25.95 81 26 80.74 26.1 80.48C26.2 80.22 26.32 79.97 26.46 79.72L26.38 79.69C26.16 79.91 25.84 80.18 25.43 80.47C25.02 80.77 24.58 81.05 24.12 81.32C23.66 81.59 23.2 81.82 22.75 82.01C22.3 82.2 21.92 82.3 21.62 82.3C21.48 82.3 21.34 82.29 21.19 82.26C21.04 82.23 20.92 82.19 20.8 82.13C20.69 82.07 20.59 81.99 20.52 81.88C20.44 81.77 20.41 81.63 20.41 81.47C20.41 81.11 20.52 80.7 20.75 80.27C20.98 79.84 21.27 79.37 21.63 78.9C21.99 78.42 22.39 77.94 22.83 77.46C23.27 76.97 23.7 76.51 24.13 76.06C24.47 75.69 24.81 75.32 25.14 74.96C25.47 74.6 25.76 74.26 26.01 73.94C26.26 73.62 26.47 73.32 26.62 73.06C26.77 72.79 26.85 72.57 26.85 72.38C26.85 72.1 26.74 71.88 26.52 71.73C26.3 71.58 26.04 71.46 25.74 71.39C25.44 71.32 25.14 71.28 24.83 71.27C24.52 71.27 24.27 71.26 24.09 71.26C23.53 71.26 22.9 71.34 22.21 71.49C21.52 71.64 20.82 71.86 20.12 72.15C19.41 72.43 18.73 72.78 18.06 73.18C17.39 73.58 16.8 74.03 16.28 74.53C15.76 75.03 15.34 75.57 15.03 76.16C14.71 76.75 14.55 77.36 14.55 78.01C14.55 78.11 14.55 78.2 14.57 78.28C14.58 78.35 14.61 78.42 14.63 78.49C14.66 78.56 14.7 78.62 14.74 78.69C14.79 78.76 14.85 78.84 14.92 78.92C15.12 78.4 15.43 77.88 15.86 77.36C16.29 76.84 16.77 76.36 17.32 75.91C17.86 75.46 18.43 75.06 19.02 74.71C19.61 74.36 20.17 74.09 20.69 73.9C20.91 73.83 21.13 73.78 21.35 73.73C21.56 73.68 21.78 73.66 21.99 73.66C22.34 73.66 22.62 73.74 22.82 73.9C23.02 74.06 23.11 74.33 23.11 74.73C23.11 75.09 23.01 75.45 22.81 75.8C22.61 76.15 22.36 76.48 22.07 76.79C21.78 77.1 21.46 77.39 21.12 77.64C20.78 77.9 20.47 78.11 20.19 78.29C19.57 78.69 18.93 79.02 18.27 79.27C17.61 79.52 16.97 79.65 16.35 79.65C16.13 79.65 15.91 79.64 15.7 79.61C15.49 79.58 15.28 79.52 15.06 79.41C14.99 79.63 14.96 79.86 14.96 80.08C14.96 80.46 15.03 80.76 15.18 80.98C15.33 81.19 15.57 81.38 15.92 81.54C15.94 81.54 15.97 81.57 16.02 81.6C16.07 81.63 16.09 81.65 16.09 81.67C16.09 81.75 16.06 81.78 15.99 81.78C15.96 81.78 15.94 81.78 15.92 81.77C15.49 81.61 15.18 81.39 15 81.1C14.81 80.82 14.72 80.45 14.72 80C14.72 79.74 14.75 79.49 14.8 79.24C14.53 79.04 14.33 78.8 14.2 78.51C14.07 78.22 14 77.92 14 77.6C14 77.01 14.13 76.45 14.38 75.92C14.63 75.39 14.97 74.9 15.37 74.45C15.77 74 16.23 73.6 16.73 73.25C17.23 72.9 17.72 72.61 18.21 72.37C18.69 72.14 19.18 71.93 19.69 71.76C20.2 71.59 20.72 71.44 21.23 71.33C21.74 71.22 22.24 71.13 22.73 71.08C23.22 71.02 23.68 71 24.11 71C24.31 71 24.52 71 24.75 71.02C24.98 71.03 25.21 71.06 25.44 71.1C25.67 71.14 25.9 71.2 26.11 71.28C26.32 71.36 26.52 71.46 26.68 71.58C26.85 71.74 26.98 71.94 27.09 72.18C27.19 72.42 27.24 72.65 27.24 72.89C27.24 73.13 27.21 73.38 27.14 73.62C27.07 73.87 27 74.08 26.9 74.27C26.73 74.62 26.53 74.98 26.29 75.33C26.05 75.68 25.8 76.02 25.53 76.34C25.26 76.66 25 76.97 24.73 77.26C24.46 77.55 24.21 77.82 23.98 78.05L23.74 78.29C23.53 78.5 23.26 78.77 22.94 79.1C22.62 79.42 22.31 79.75 22.01 80.09C21.71 80.43 21.45 80.74 21.23 81.03C21.01 81.32 20.91 81.53 20.91 81.67C20.91 81.86 20.96 81.98 21.05 82.04C21.14 82.1 21.28 82.13 21.46 82.13C21.76 82.13 22.08 82.06 22.44 81.92C22.79 81.78 23.16 81.59 23.52 81.36C23.89 81.13 24.26 80.86 24.63 80.58C25 80.29 25.35 79.99 25.69 79.68C26.03 79.37 26.34 79.07 26.62 78.78C26.9 78.49 27.14 78.23 27.34 78.01C27.49 77.84 27.65 77.67 27.81 77.48C27.97 77.29 28.13 77.12 28.29 76.95C28.69 76.51 29.08 76.07 29.45 75.64C29.82 75.21 30.2 74.76 30.58 74.3C30.58 74.28 30.61 74.26 30.64 74.23C30.64 74.21 30.68 74.18 30.72 74.13C30.86 73.97 31 73.81 31.13 73.65C31.27 73.49 31.4 73.33 31.53 73.16C31.73 72.92 31.92 72.68 32.12 72.45C32.32 72.22 32.49 72.02 32.65 71.86C32.7 71.81 32.74 71.79 32.79 71.79C32.84 71.79 32.86 71.81 32.86 71.86L32.82 73.61L32.88 73.59ZM22.9 74.57C22.9 74.3 22.82 74.1 22.66 73.98C22.5 73.85 22.29 73.79 22.02 73.79C21.71 73.79 21.39 73.84 21.04 73.95C20.7 74.06 20.34 74.2 19.99 74.38C19.64 74.56 19.28 74.77 18.93 75C18.58 75.24 18.25 75.48 17.93 75.74C17.61 76 17.32 76.25 17.05 76.5C16.78 76.76 16.55 77 16.35 77.22C16.14 77.46 15.92 77.75 15.71 78.09C15.5 78.43 15.32 78.76 15.18 79.1C15.37 79.23 15.56 79.31 15.77 79.34C15.98 79.37 16.2 79.39 16.42 79.39C16.74 79.39 17.12 79.32 17.57 79.18C18.02 79.04 18.48 78.85 18.96 78.62C19.44 78.39 19.92 78.11 20.39 77.79C20.86 77.47 21.28 77.13 21.66 76.78C22.04 76.43 22.33 76.05 22.56 75.67C22.79 75.29 22.9 74.93 22.9 74.57Z" fill="#780000"/>
<path d="M31.34 81.48C31.34 81.73 31.52 81.86 31.87 81.86C32.36 81.86 33 81.65 33.8 81.22C34.47 80.85 35.04 80.45 35.51 80.04L35.64 80.19C34.15 81.43 32.88 82.05 31.85 82.05C31.03 82.05 30.62 81.72 30.62 81.06C30.62 80.2 31.18 79.37 32.3 78.57C33.34 77.82 34.32 77.45 35.21 77.45C35.58 77.45 35.77 77.62 35.77 77.97C35.77 78.35 35.26 78.8 34.24 79.31C33.54 79.66 32.84 79.93 32.14 80.15C32 80.27 31.84 80.48 31.65 80.78C31.44 81.1 31.34 81.33 31.34 81.48ZM35.51 77.78C35.51 77.68 35.4 77.63 35.17 77.63C34.86 77.63 34.36 77.93 33.67 78.53C33.18 78.95 32.74 79.38 32.34 79.83C32.96 79.68 33.58 79.44 34.22 79.1C35.08 78.64 35.51 78.2 35.51 77.78Z" fill="#780000"/>
<path d="M37.1701 77.61H38.3901L37.0201 79.36C37.7301 78.74 38.2101 78.33 38.4501 78.16C39.0701 77.71 39.6301 77.49 40.1201 77.49C40.5101 77.49 40.7101 77.76 40.7101 78.3C40.7101 78.71 40.3301 79.35 39.5601 80.2C38.7901 81.06 38.4101 81.56 38.4001 81.7C38.4501 81.79 38.5201 81.84 38.6201 81.84C38.8501 81.84 39.3101 81.6 39.9801 81.11C40.5401 80.71 40.97 80.36 41.2701 80.07L41.3801 80.24C40.9901 80.62 40.5301 81 40.0101 81.36C39.3401 81.81 38.8201 82.03 38.4601 82.03C37.9801 82.03 37.7501 81.8 37.7501 81.33C37.7501 80.94 37.9401 80.5 38.3201 80.01C38.4501 79.83 38.81 79.43 39.41 78.81C39.84 78.38 40.0801 78.05 40.1401 77.83C40.1201 77.72 40.0401 77.66 39.9001 77.66C39.5001 77.66 38.7901 78.1 37.7701 78.99C36.95 79.7 36.3101 80.33 35.8701 80.88C35.0901 81.83 33.91 83.37 32.36 85.49H31.1801C33.6501 82.16 35.66 79.53 37.19 77.61H37.1701Z" fill="#780000"/>
<path d="M41.6501 81.48C41.6501 81.73 41.8301 81.86 42.1801 81.86C42.6701 81.86 43.31 81.65 44.11 81.22C44.78 80.85 45.3501 80.45 45.8201 80.04L45.9501 80.19C44.4601 81.43 43.19 82.05 42.16 82.05C41.34 82.05 40.9301 81.72 40.9301 81.06C40.9301 80.2 41.49 79.37 42.61 78.57C43.65 77.82 44.6301 77.45 45.5201 77.45C45.89 77.45 46.08 77.62 46.08 77.97C46.08 78.35 45.57 78.8 44.55 79.31C43.85 79.66 43.1501 79.93 42.4501 80.15C42.3101 80.27 42.1501 80.48 41.9601 80.78C41.7501 81.1 41.6501 81.33 41.6501 81.48ZM45.8201 77.78C45.8201 77.68 45.7101 77.63 45.4801 77.63C45.1701 77.63 44.6701 77.93 43.9801 78.53C43.5001 78.95 43.0501 79.38 42.6501 79.83C43.2701 79.68 43.8901 79.44 44.5301 79.1C45.3901 78.64 45.8201 78.2 45.8201 77.78Z" fill="#780000"/>
<path d="M54.53 77.61C54.26 77.96 53.98 78.32 53.7 78.66C53.42 79.01 53.14 79.36 52.87 79.71C51.98 80.87 51.54 81.52 51.54 81.67C51.54 81.75 51.62 81.8 51.76 81.8C51.96 81.8 52.37 81.57 53.01 81.1C53.57 80.68 53.95 80.35 54.16 80.11L54.3 80.24C52.95 81.45 52.05 82.06 51.6 82.06C51.15 82.06 50.9 81.8 50.9 81.28C50.9 80.91 51.22 80.28 51.85 79.39C51.9 79.33 52.02 79.18 52.21 78.94C52.4 78.7 52.66 78.38 52.99 77.96C52.74 78.08 52.48 78.26 52.22 78.51C51.96 78.75 51.7 79.02 51.43 79.31C51.16 79.6 50.9 79.91 50.63 80.22C50.36 80.53 50.11 80.82 49.87 81.08C49.63 81.34 49.4 81.56 49.18 81.75C48.96 81.93 48.77 82.04 48.6 82.06C48.39 82.1 48.25 82.06 48.17 81.93C48.09 81.8 48.05 81.64 48.07 81.43C48.08 81.22 48.14 81 48.24 80.74C48.34 80.48 48.47 80.25 48.62 80.03C48.66 79.94 48.73 79.82 48.83 79.67C48.93 79.52 49.05 79.36 49.19 79.19C49.33 79.01 49.49 78.82 49.66 78.61C49.83 78.4 50.01 78.18 50.2 77.96C49.81 78.1 49.45 78.32 49.12 78.63C48.79 78.93 48.48 79.26 48.18 79.62C47.94 79.92 47.7 80.21 47.47 80.51C47.24 80.8 47 81.07 46.76 81.31C46.52 81.55 46.26 81.74 46 81.88C45.73 82.02 45.45 82.09 45.14 82.07C44.98 82.04 44.85 82 44.75 81.93C44.65 81.86 44.57 81.79 44.51 81.71C44.45 81.63 44.42 81.53 44.41 81.44C44.4 81.34 44.39 81.25 44.41 81.17C44.41 81.03 44.46 80.9 44.54 80.78C44.61 80.66 44.7 80.55 44.81 80.46C44.91 80.37 45.03 80.29 45.15 80.24C45.27 80.19 45.4 80.16 45.52 80.17C45.69 80.19 45.82 80.25 45.93 80.35C46.04 80.45 46.07 80.57 46.06 80.71C46.04 80.85 45.99 80.98 45.91 81.11C45.83 81.24 45.74 81.35 45.64 81.46C45.54 81.57 45.45 81.66 45.37 81.74C45.29 81.82 45.24 81.88 45.23 81.91C45.25 81.91 45.27 81.91 45.29 81.89C45.31 81.87 45.34 81.87 45.38 81.87C45.38 81.87 45.41 81.88 45.44 81.88H45.5C45.73 81.82 45.95 81.72 46.16 81.56C46.37 81.41 46.57 81.23 46.77 81.02C46.97 80.81 47.16 80.6 47.34 80.36C47.53 80.13 47.72 79.9 47.91 79.67C48.11 79.45 48.3 79.23 48.49 79.01C48.68 78.8 48.88 78.6 49.08 78.42C49.29 78.24 49.5 78.09 49.72 77.96C49.94 77.83 50.18 77.74 50.43 77.68C50.45 77.66 50.46 77.64 50.47 77.62H50.75C50.75 77.62 50.81 77.62 50.84 77.62C50.87 77.62 50.91 77.62 50.95 77.62H51.8C51.53 77.99 51.25 78.34 50.97 78.68C50.69 79.03 50.41 79.38 50.14 79.73C50.01 79.89 49.88 80.06 49.75 80.26C49.62 80.46 49.5 80.64 49.39 80.83C49.28 81.02 49.19 81.19 49.12 81.34C49.05 81.49 49.01 81.61 49 81.68C49.15 81.6 49.32 81.45 49.52 81.24C49.72 81.03 49.93 80.79 50.16 80.53C50.39 80.26 50.63 79.98 50.88 79.69C51.13 79.4 51.39 79.12 51.65 78.85C51.91 78.58 52.17 78.35 52.43 78.14C52.69 77.93 52.95 77.8 53.2 77.72C53.22 77.68 53.24 77.65 53.26 77.64H54.53V77.61Z" fill="#780000"/>
<path d="M59.44 79.71C59.36 79.82 59.24 79.92 59.1 80C58.96 80.08 58.8 80.13 58.64 80.16C58.48 80.19 58.33 80.18 58.18 80.14C58.03 80.1 57.9 80.01 57.79 79.88C57.41 80.43 56.96 80.91 56.45 81.32C55.82 81.82 55.23 82.06 54.7 82.06C54.12 82.06 53.83 81.73 53.83 81.08C53.83 80.25 54.34 79.42 55.36 78.6C56.34 77.82 57.25 77.42 58.1 77.42C58.25 77.42 58.38 77.48 58.49 77.59C58.6 77.71 58.66 77.84 58.66 77.97C58.66 78.36 58.44 78.93 57.99 79.66C58.05 79.72 58.12 79.76 58.22 79.8C58.32 79.84 58.43 79.85 58.55 79.84C58.67 79.84 58.8 79.8 58.94 79.73C59.08 79.67 59.22 79.56 59.35 79.4L59.45 79.68L59.44 79.71ZM57.69 79.47C57.69 79.17 57.76 78.92 57.89 78.71C57.94 78.64 58.06 78.52 58.27 78.36C58.34 78.3 58.38 78.25 58.4 78.19C58.42 78.13 58.43 78.08 58.43 78.02C58.43 77.81 58.35 77.71 58.19 77.71C57.77 77.71 57.04 78.25 56.01 79.32C54.98 80.4 54.47 81.15 54.47 81.57C54.47 81.77 54.57 81.86 54.76 81.86C55.18 81.86 55.72 81.58 56.38 81.02C56.62 80.81 56.85 80.6 57.07 80.38C57.29 80.16 57.5 79.91 57.71 79.65C57.71 79.61 57.7 79.55 57.7 79.45L57.69 79.47Z" fill="#780000"/>
<path d="M65.05 77.61C64.78 77.96 64.5 78.32 64.22 78.66C63.94 79.01 63.66 79.36 63.39 79.71C62.5 80.87 62.06 81.53 62.06 81.7C62.06 81.78 62.13 81.83 62.28 81.83C62.48 81.83 62.89 81.6 63.53 81.13C64.09 80.71 64.47 80.38 64.68 80.14L64.82 80.27C63.47 81.48 62.57 82.09 62.12 82.09C61.63 82.09 61.39 81.83 61.39 81.31C61.39 81.01 61.6 80.55 62.01 79.92C61.89 79.96 61.78 79.98 61.67 80C61.56 80.02 61.49 80.02 61.45 80.02C61.34 80.02 61.23 79.99 61.13 79.94C61.03 79.89 60.93 79.84 60.83 79.79C60.73 79.74 60.64 79.71 60.54 79.69C60.45 79.67 60.35 79.69 60.26 79.75L58.61 81.95H57.28L60.63 77.6H61.89L60.55 79.39C60.66 79.33 60.77 79.3 60.88 79.28C60.99 79.26 61.1 79.25 61.22 79.24C61.32 79.24 61.41 79.26 61.49 79.3C61.57 79.34 61.65 79.39 61.72 79.45C61.8 79.51 61.87 79.56 61.94 79.61C62.01 79.66 62.09 79.69 62.17 79.7C62.22 79.62 62.29 79.52 62.38 79.39C62.43 79.32 62.57 79.13 62.8 78.84C63.03 78.55 63.36 78.14 63.78 77.62H65.05V77.61Z" fill="#780000"/>
<path d="M67.62 77.59C65.64 80.04 64.65 81.4 64.65 81.69C64.65 81.77 64.7 81.8 64.8 81.8H64.87C65.14 81.8 65.68 81.47 66.48 80.85C66.94 80.5 67.43 79.97 67.96 79.28C68.73 78.29 69.19 77.73 69.32 77.59H70.58C70.02 78.3 69.46 79 68.91 79.7C68.02 80.85 67.58 81.52 67.58 81.7C67.58 81.78 67.65 81.81 67.78 81.81C68.01 81.81 68.45 81.57 69.1 81.08C69.6 80.7 70.01 80.35 70.33 80.03L70.43 80.2C69.72 80.83 69.28 81.21 69.1 81.35C68.47 81.82 67.98 82.05 67.6 82.05C67.14 82.05 66.91 81.82 66.91 81.35C66.91 81.11 66.95 80.87 67.02 80.65C66.7 80.95 66.35 81.23 65.96 81.49C65.43 81.85 65.03 82.04 64.77 82.04C64.27 82.04 64.01 81.79 64.01 81.3C64.01 80.86 64.31 80.22 64.92 79.37C65.4 78.77 65.87 78.18 66.33 77.59H67.6H67.62Z" fill="#780000"/>
<path d="M76.32 77.61C76.05 77.96 75.77 78.32 75.49 78.66C75.21 79.01 74.93 79.36 74.66 79.71C73.77 80.87 73.33 81.52 73.33 81.67C73.33 81.75 73.41 81.8 73.55 81.8C73.75 81.8 74.16 81.57 74.8 81.1C75.36 80.68 75.74 80.35 75.95 80.11L76.09 80.24C74.74 81.45 73.84 82.06 73.39 82.06C72.94 82.06 72.69 81.8 72.69 81.28C72.69 80.97 72.88 80.53 73.25 79.95C73.1 80.03 72.94 80.09 72.77 80.12C72.56 80.37 72.35 80.62 72.14 80.86C71.93 81.1 71.7 81.31 71.47 81.5C71.24 81.68 71.01 81.83 70.76 81.93C70.52 82.04 70.26 82.08 70 82.06C69.84 82.03 69.71 81.99 69.61 81.92C69.51 81.85 69.43 81.78 69.37 81.7C69.31 81.62 69.28 81.52 69.26 81.43C69.25 81.33 69.24 81.24 69.26 81.16C69.26 81.02 69.31 80.89 69.39 80.77C69.46 80.65 69.55 80.54 69.66 80.45C69.76 80.36 69.88 80.28 70 80.23C70.12 80.18 70.25 80.15 70.37 80.16C70.54 80.18 70.67 80.24 70.78 80.34C70.89 80.44 70.92 80.56 70.91 80.7C70.89 80.84 70.84 80.97 70.76 81.1C70.68 81.23 70.58 81.34 70.49 81.45C70.39 81.56 70.3 81.65 70.22 81.73C70.14 81.81 70.09 81.87 70.08 81.9C70.1 81.9 70.12 81.9 70.14 81.88C70.16 81.87 70.19 81.86 70.23 81.86C70.23 81.86 70.26 81.87 70.29 81.87H70.35C70.74 81.78 71.11 81.56 71.46 81.22C71.81 80.88 72.15 80.52 72.47 80.14C72.27 80.12 72.1 80.06 71.94 79.97C71.78 79.87 71.65 79.75 71.56 79.6C71.47 79.45 71.4 79.28 71.37 79.09C71.34 78.9 71.37 78.7 71.43 78.49C71.51 78.22 71.69 77.99 71.95 77.8C72.21 77.61 72.5 77.49 72.83 77.44C73.15 77.39 73.47 77.42 73.79 77.52C74.11 77.62 74.35 77.84 74.53 78.17C74.6 78.09 74.66 78 74.74 77.91C74.81 77.82 74.89 77.73 74.96 77.62H76.32V77.61ZM73.65 79.39C73.65 79.39 73.76 79.24 73.87 79.07C73.98 78.9 74.15 78.67 74.36 78.38C74.26 78.12 74.12 77.95 73.95 77.87C73.78 77.79 73.6 77.77 73.42 77.82C73.24 77.87 73.07 77.96 72.91 78.11C72.75 78.26 72.63 78.44 72.56 78.64C72.47 78.85 72.43 79.05 72.44 79.22C72.45 79.39 72.51 79.53 72.6 79.64C72.69 79.75 72.82 79.81 72.97 79.82C73.12 79.82 73.29 79.77 73.47 79.64C73.5 79.59 73.53 79.55 73.55 79.51C73.58 79.47 73.61 79.43 73.65 79.38V79.39Z" fill="#780000"/>
<path d="M33.49 0.0600128V7.40001C33.49 7.69001 33.51 7.9 33.56 8.05C33.61 8.2 33.7 8.29001 33.84 8.34001C33.98 8.39001 34.19 8.42 34.46 8.44V8.68001C34.29 8.66001 34.07 8.65001 33.8 8.65001C33.53 8.65001 33.24 8.65001 32.92 8.65001C32.6 8.65001 32.28 8.65001 31.97 8.65001C31.66 8.65001 31.4 8.66001 31.19 8.68001V8.44C31.53 8.42 31.78 8.39001 31.96 8.34001C32.14 8.29001 32.25 8.2 32.31 8.05C32.37 7.91 32.4 7.69001 32.4 7.40001V1.98001C32.4 1.70001 32.36 1.49 32.28 1.36C32.2 1.23 32.06 1.14001 31.85 1.10001C31.64 1.06001 31.36 1.04001 31 1.04001V0.790009C31.64 0.690009 32.15 0.580012 32.53 0.450012C32.91 0.320012 33.22 0.190013 33.47 0.0600128H33.49Z" fill="#780000"/>
<path d="M38.78 0.0100098C38.92 0.0100098 39.06 0.0100085 39.2 0.0400085C39.34 0.0600085 39.47 0.0900104 39.59 0.12001C39.71 0.15001 39.82 0.20001 39.92 0.26001C40.08 0.34001 40.23 0.460001 40.38 0.610001C40.53 0.760001 40.6 0.940009 40.6 1.15001C40.6 1.33001 40.54 1.48 40.41 1.61C40.28 1.74 40.13 1.8 39.94 1.8C39.75 1.8 39.61 1.74 39.48 1.63C39.35 1.51 39.29 1.37 39.29 1.19C39.29 1.05 39.33 0.910009 39.42 0.790009C39.51 0.670009 39.63 0.58001 39.78 0.51001C39.68 0.40001 39.53 0.320014 39.32 0.280014C39.11 0.240014 38.92 0.210007 38.76 0.210007C38.5 0.210007 38.24 0.280004 38 0.410004C37.76 0.540004 37.54 0.770001 37.35 1.11C37.16 1.44 37.01 1.9 36.89 2.47C36.78 3.05 36.72 3.78001 36.72 4.67001C36.72 5.48001 36.77 6.14001 36.86 6.65001C36.95 7.16001 37.08 7.56001 37.23 7.84001C37.39 8.12001 37.56 8.32001 37.76 8.43001C37.96 8.54001 38.15 8.60001 38.35 8.60001C38.62 8.60001 38.87 8.52001 39.09 8.35001C39.31 8.18001 39.49 7.91 39.63 7.52C39.77 7.14 39.83 6.63 39.83 6C39.83 5.13 39.7 4.50001 39.45 4.12001C39.2 3.74001 38.88 3.54001 38.48 3.54001C38.34 3.54001 38.18 3.57001 38 3.64001C37.82 3.70001 37.65 3.82001 37.48 3.99001C37.31 4.16001 37.15 4.40001 37.01 4.71001C36.87 5.02001 36.77 5.43001 36.7 5.93001L36.56 5.88C36.62 5.24001 36.75 4.73 36.95 4.36C37.15 3.99 37.41 3.71 37.71 3.55C38.01 3.39 38.34 3.3 38.68 3.3C39.08 3.3 39.46 3.40001 39.81 3.59001C40.16 3.79001 40.45 4.08001 40.66 4.48001C40.88 4.88001 40.98 5.37 40.98 5.97C40.98 6.6 40.86 7.13 40.61 7.55C40.37 7.97 40.04 8.29001 39.63 8.51001C39.22 8.73001 38.77 8.83 38.27 8.83C37.39 8.83 36.71 8.49001 36.24 7.81001C35.76 7.13001 35.53 6.14001 35.53 4.85001C35.53 3.85001 35.67 2.99001 35.94 2.26001C36.21 1.54001 36.59 0.980012 37.07 0.590012C37.55 0.200012 38.11 0 38.74 0L38.78 0.0100098Z" fill="#780000"/>
<path d="M43.0999 7.31001C43.3099 7.31001 43.49 7.39001 43.64 7.54001C43.79 7.69001 43.8699 7.87 43.8699 8.08C43.8699 8.29 43.79 8.47001 43.64 8.62001C43.49 8.77001 43.3099 8.85001 43.0999 8.85001C42.8899 8.85001 42.71 8.77001 42.56 8.62001C42.41 8.47001 42.33 8.29 42.33 8.08C42.33 7.87 42.41 7.69001 42.56 7.54001C42.71 7.39001 42.8899 7.31001 43.0999 7.31001Z" fill="#780000"/>
<path d="M48.26 0.0100098C48.85 0.0100098 49.37 0.180014 49.81 0.530014C50.25 0.870014 50.6 1.37001 50.85 2.01001C51.1 2.65001 51.22 3.44 51.22 4.36C51.22 5.28 51.09 6.04001 50.84 6.71001C50.58 7.38001 50.23 7.91001 49.78 8.28001C49.33 8.66001 48.82 8.84001 48.24 8.84001C47.66 8.84001 47.13 8.67001 46.69 8.32001C46.25 7.97001 45.9 7.48 45.65 6.83C45.4 6.18 45.28 5.40001 45.28 4.49001C45.28 3.58001 45.41 2.81001 45.66 2.14001C45.91 1.47001 46.27 0.940007 46.72 0.570007C47.17 0.190007 47.68 0.0100098 48.26 0.0100098ZM48.21 0.230011C47.63 0.230011 47.19 0.590007 46.91 1.32001C46.63 2.05001 46.48 3.09001 46.48 4.45001C46.48 5.81001 46.64 6.90001 46.97 7.59001C47.29 8.28001 47.74 8.63 48.3 8.63C48.89 8.63 49.33 8.27001 49.61 7.54001C49.89 6.81001 50.03 5.77 50.03 4.41C50.03 3.05 49.87 1.96 49.54 1.27C49.22 0.580004 48.77 0.230011 48.21 0.230011Z" fill="#780000"/>
<path d="M55.5401 0.0100098C56.1301 0.0100098 56.6501 0.180014 57.0901 0.530014C57.5301 0.870014 57.8801 1.37001 58.1301 2.01001C58.3801 2.65001 58.5001 3.44 58.5001 4.36C58.5001 5.28 58.3701 6.04001 58.1201 6.71001C57.8601 7.38001 57.5101 7.91001 57.0601 8.28001C56.6101 8.66001 56.1 8.84001 55.5201 8.84001C54.9401 8.84001 54.4101 8.67001 53.9701 8.32001C53.5301 7.97001 53.1801 7.48 52.9301 6.83C52.6801 6.18 52.5601 5.40001 52.5601 4.49001C52.5601 3.58001 52.69 2.81001 52.94 2.14001C53.19 1.47001 53.5501 0.940007 54.0001 0.570007C54.4501 0.190007 54.9601 0.0100098 55.5401 0.0100098ZM55.4901 0.230011C54.9101 0.230011 54.47 0.590007 54.19 1.32001C53.91 2.05001 53.7601 3.09001 53.7601 4.45001C53.7601 5.81001 53.9201 6.90001 54.2501 7.59001C54.5701 8.28001 55.0201 8.63 55.5801 8.63C56.1701 8.63 56.6101 8.27001 56.8901 7.54001C57.1701 6.81001 57.3101 5.77 57.3101 4.41C57.3101 3.05 57.1501 1.96 56.8201 1.27C56.5001 0.580004 56.0501 0.230011 55.4901 0.230011Z" fill="#780000"/>
<path d="M21.24 48.22C21.24 48.22 21.23 48.23 21.22 48.23C21.23 48.23 21.24 48.23 21.25 48.23L21.24 48.22Z" fill="#780000"/>
<path d="M82.88 46.71C82.29 47.2 81.71 47.59 80.99 47.72C80.05 47.89 79.19 47.76 78.4 46.88H80.09C79.85 46.95 79.6 47.04 79.35 47.1C79.88 47.64 80.82 47.52 82.16 46.72C81.36 46.36 80.59 46.08 79.71 46.49C79.47 46.6 79.11 46.44 78.74 46.4C78.73 46.37 78.74 46.33 78.75 46.3C78.72 46.33 78.69 46.37 78.67 46.4C77.62 46.85 76.57 47.28 75.44 47.75C75.33 47.82 75.31 47.88 75.28 47.95C75.35 47.95 75.42 47.96 75.5 47.97C75.61 47.97 75.73 47.97 75.89 48.02C76.44 48.03 76.98 48.06 77.53 48.11C77.58 48.11 77.63 48.18 77.65 48.25C77.72 47.95 78.08 47.97 78.22 48C78.83 48.11 79.43 48.33 80.03 48.6C79.48 48.57 78.92 48.53 78.46 48.49C78.93 49.09 79.5 49.68 79.88 50.37C80.24 51.03 80.42 51.8 80.2 52.63C79.8 52.42 79.51 52.27 79.19 52.1C79.01 51.98 78.87 51.88 78.68 51.74C78.52 51.63 78.43 51.55 78.33 51.48C78.27 51.43 78.22 51.37 78.13 51.26C77.93 50.57 77.75 49.93 77.58 49.25C77.58 49.16 77.58 49.1 77.61 49.04C77.68 49.04 77.71 49.04 77.74 49.08C77.75 49.15 77.77 49.17 77.81 49.19C77.81 49.19 77.8 49.19 77.8 49.23C77.99 50.57 78.74 51.42 79.91 52.05C79.88 50.77 79.51 49.74 78.45 48.99C78.16 48.75 77.9 48.55 77.64 48.34C77.64 48.33 77.64 48.31 77.64 48.31C77.13 48.31 76.68 48.28 76.12 48.24C75.99 48.22 75.93 48.21 75.88 48.2C75.85 48.2 75.81 48.23 75.75 48.22C75.4 48.21 75.1 48.21 74.78 48.22C74.75 48.28 74.73 48.32 74.68 48.35C74.28 48.33 73.91 48.32 73.55 48.3C73.55 48.3 73.55 48.29 73.54 48.29C73.78 48.14 74.02 47.97 74.29 47.86C75.31 47.46 76.36 47.12 77.37 46.69C78.3 46.3 78.46 45.95 78.43 44.97C78.42 44.59 78.48 44.21 78.52 43.83C78.57 43.83 78.62 43.83 78.68 43.83V44.79C78.74 44.8 78.8 44.82 78.86 44.84C78.95 44.57 79.12 44.29 79.11 44.02C79.09 43.39 78.96 42.75 78.93 42.12C78.92 41.84 79.02 41.57 79.17 41.3C79.7 42.85 79.66 44.34 78.67 45.85C79 45.77 79.15 45.73 79.3 45.69C79.32 45.72 79.35 45.76 79.37 45.8C79.22 45.91 79.07 46.04 78.85 46.17L78.83 46.19C79.01 46.27 79.23 46.45 79.32 46.4C80.52 45.68 81.65 45.97 82.89 46.68L82.88 46.71Z" fill="#780000"/>
<path d="M83.83 44.03C83.47 44.03 83.09 44.03 82.73 44.06C82.74 44.02 82.76 43.99 82.77 43.95C82.77 43.92 82.74 43.95 82.74 43.95C82.7 43.93 82.66 43.91 82.55 43.88C82.33 43.91 82.17 43.97 81.91 44.05C82.1 43.76 82.21 43.57 82.33 43.39C82.21 43.42 82.08 43.44 81.85 43.48C81.91 43.24 81.96 43.05 82.04 42.77C82.45 41.61 82.17 40.63 81.64 39.69C81.57 39.69 81.49 39.69 81.4 39.76C80.71 40.81 80.34 41.87 80.81 43.07C80.85 43.18 80.91 43.35 80.97 43.36C81.8 43.41 81.34 43.85 81.23 44.18C81.23 44.18 81.23 44.19 81.22 44.21C81.14 44.3 81.09 44.35 81.04 44.41C81.04 44.41 81.03 44.41 81.02 44.41C80.56 44.77 80.14 45.13 79.72 45.48C79.76 45.52 79.8 45.57 79.83 45.61C80.28 45.27 80.74 44.92 81.16 44.55C81.16 44.55 81.17 44.55 81.19 44.56C81.51 44.56 81.74 44.56 81.99 44.54C82 44.48 82.02 44.42 82.08 44.35C82.27 44.33 82.43 44.32 82.65 44.31C83.08 44.28 83.46 44.24 83.84 44.2C83.84 44.15 83.84 44.09 83.83 44.04V44.03ZM81.64 42.69C81.6 42.45 81.56 42.21 81.52 41.97H81.39C81.35 42.4 81.3 42.83 81.26 43.27C80.75 42.23 80.84 41.25 81.69 40.31C81.75 40.94 81.81 41.57 81.87 42.21C81.82 42.45 81.78 42.57 81.74 42.7H81.65L81.64 42.69Z" fill="#780000"/>
<path d="M80.26 46.88H80.08C80.14 46.86 80.19 46.85 80.26 46.83V46.88Z" fill="#780000"/>
<path d="M82.33 49.81L81.1801 48.83C81.5301 48.59 82 48.28 82.44 47.93C83.47 47.12 84.56 47.12 85.7 47.63C85.91 47.72 86.1101 47.84 86.4301 48.01C85.3401 48.57 84.3801 49.14 83.1201 49.08C82.9701 49.08 82.8901 49.08 82.7601 49.1L82.98 49.26C82.84 49.31 82.7101 49.35 82.5701 49.41C82.4701 49.45 82.38 49.49 82.31 49.62C82.34 49.74 82.33 49.77 82.33 49.8V49.81ZM82.4301 48.7C82.4301 48.7 82.46 48.72 82.41 48.8C82.39 48.83 82.3601 48.87 82.3701 48.89C82.3701 48.92 82.42 48.97 82.44 48.96C82.95 48.88 83.47 48.85 83.97 48.71C84.51 48.56 85.0201 48.31 85.6201 48.08C84.3801 47.16 82.9701 47.6 81.9301 48.73C81.9601 48.75 82.0001 48.79 82.0201 48.79C82.1501 48.76 82.28 48.71 82.44 48.7H82.4301Z" fill="#780000"/>
<path d="M53.59 15.41C53.6 14.9 53.62 14.45 53.63 14C54.06 14.38 54.04 20.6 53.66 21.11C53.47 20.19 53.55 19.24 53.55 18.31C53.55 17.36 53.58 16.42 53.6 15.42L53.59 15.41Z" fill="#780000"/>
<path d="M89.5001 51.43C89.5001 51.43 89.3401 51.72 89.2601 51.71C88.5101 51.62 87.7601 51.5 86.9401 51.37C86.5701 51.21 86.2801 51.08 85.9501 50.92C85.9001 50.87 85.8601 50.85 85.8401 50.82C85.8401 50.82 85.8401 50.79 85.8401 50.77C86.1201 50.84 86.4101 50.87 86.6801 50.97C87.4201 51.25 88.1601 51.4 88.9701 51.3C88.1501 49.94 86.9201 49.52 85.9201 50.23C86.2801 50.29 86.6301 50.34 86.9701 50.43C87.1301 50.43 87.2801 50.45 87.4301 50.47C87.4301 50.53 87.4101 50.59 87.4001 50.65C87.2601 50.62 87.1201 50.59 86.9501 50.54C86.9501 50.54 86.9401 50.53 86.9501 50.52C86.9501 50.52 86.9401 50.53 86.9301 50.53C86.5201 50.53 86.1501 50.52 85.7801 50.48C85.7001 50.47 85.6201 50.48 85.5101 50.51C85.3801 50.51 85.2901 50.51 85.2101 50.51C85.2101 50.51 85.2067 50.5 85.2001 50.48C85.1501 50.35 85.1101 50.26 85.0701 50.17C86.1301 49.7 87.2401 49.35 88.3001 50.02C88.8101 50.34 89.1201 50.96 89.5101 51.46L89.5001 51.43Z" fill="#780000"/>
<path d="M86.44 54.62C86.18 54.4 85.96 54.18 85.71 53.95C85.51 53.33 85.33 52.74 85.19 52.13C85.15 51.96 85.21 51.77 85.31 51.55C85.47 53.02 86.09 54.16 87.53 54.84C87.62 54.78 87.64 54.69 87.65 54.6L87.14 52.63C87.32 52.88 87.49 53.02 87.54 53.2C87.72 53.77 87.89 54.34 88.02 54.92C88.1 55.25 88.01 55.45 87.61 55.23C87.24 55.02 86.86 54.83 86.43 54.63L86.44 54.62Z" fill="#780000"/>
<path d="M47.71 18.22C47.5 17.74 46.9 17.47 47.22 16.79C47.56 17.26 47.9 17.72 48.23 18.19C48.99 19.26 49.76 20.34 50.51 21.42C50.6 21.56 50.6 21.76 50.65 21.92C50.51 21.83 50.32 21.76 50.23 21.63C49.39 20.51 48.57 19.37 47.72 18.21L47.71 18.22Z" fill="#780000"/>
<path d="M83.31 52.92C82.42 52.22 81.54 51.56 81.5 50.32C81.5 50.13 81.5 49.95 81.59 49.73C81.82 50.86 82.15 51.89 83.47 52.47L83.12 50.6C83.59 51.01 83.74 51.78 83.71 52.62C83.7 52.86 83.69 53.08 83.32 52.93L83.31 52.92Z" fill="#780000"/>
<path d="M7.16995 49.81C7.16995 49.81 7.16995 49.75 7.18995 49.63C7.11995 49.5 7.02995 49.45 6.92995 49.42C6.78995 49.37 6.65995 49.32 6.51995 49.27L6.73995 49.11C6.60995 49.1 6.53995 49.09 6.37995 49.09C5.11995 49.15 4.15995 48.58 3.06995 48.02C3.38995 47.85 3.58995 47.73 3.79995 47.64C4.93995 47.13 6.02995 47.13 7.05995 47.94C7.49995 48.29 7.97995 48.59 8.31995 48.84L7.16995 49.82V49.81ZM7.48995 48.8C7.48995 48.8 7.54995 48.76 7.57995 48.74C6.52995 47.61 5.11995 47.17 3.88995 48.09C4.47995 48.32 4.99995 48.57 5.53995 48.72C6.02995 48.86 6.55995 48.89 7.06995 48.97C7.08995 48.97 7.13995 48.93 7.13995 48.9C7.13995 48.87 7.10995 48.84 7.09995 48.81C7.04995 48.73 7.07995 48.71 7.07995 48.71C7.23995 48.73 7.36995 48.77 7.49995 48.8H7.48995Z" fill="#780000"/>
<path d="M0.0100021 51.43C0.0100021 51.43 0.17 51.72 0.25 51.71C1 51.62 1.75 51.5 2.57 51.37C2.94 51.21 3.23001 51.08 3.56001 50.92C3.61001 50.87 3.65001 50.85 3.67001 50.82C3.67001 50.82 3.67001 50.79 3.67001 50.77C3.39001 50.84 3.1 50.87 2.83 50.97C2.09 51.25 1.35 51.4 0.540001 51.3C1.36 49.94 2.59 49.52 3.59 50.23C3.23 50.29 2.88 50.34 2.54 50.43C2.38 50.43 2.23 50.45 2.08 50.47C2.08 50.53 2.1 50.59 2.11 50.65C2.25 50.62 2.39001 50.59 2.56001 50.54C2.56001 50.54 2.57001 50.53 2.56001 50.52C2.56001 50.52 2.57 50.53 2.58 50.53C2.99 50.53 3.36 50.52 3.73 50.48C3.81 50.47 3.89 50.48 4 50.51C4.13 50.51 4.22 50.51 4.3 50.51C4.3 50.51 4.30334 50.5 4.31001 50.48C4.36001 50.35 4.4 50.26 4.44 50.17C3.38 49.7 2.27001 49.35 1.21001 50.02C0.700007 50.34 0.39 50.96 0 51.46L0.0100021 51.43Z" fill="#780000"/>
<path d="M1.89005 55.22C1.50005 55.44 1.41006 55.25 1.48006 54.91C1.62006 54.33 1.78006 53.76 1.96006 53.19C2.02006 53.01 2.18005 52.87 2.36005 52.62L1.85006 54.59C1.86006 54.68 1.88005 54.77 1.97005 54.83C3.41005 54.16 4.03005 53.02 4.19005 51.54C4.30005 51.76 4.35006 51.95 4.31006 52.12C4.17006 52.72 3.99005 53.32 3.79005 53.94C3.54005 54.17 3.32006 54.39 3.06006 54.61C2.64006 54.82 2.26006 55 1.88006 55.21L1.89005 55.22Z" fill="#780000"/>
<path d="M5.80997 52.62C5.76997 51.79 5.92997 51.02 6.39997 50.6L6.04997 52.47C7.36997 51.89 7.69997 50.86 7.92997 49.73C8.01997 49.95 8.01997 50.13 8.01997 50.32C7.97997 51.56 7.09997 52.22 6.20997 52.92C5.83997 53.08 5.82997 52.86 5.81997 52.61L5.80997 52.62Z" fill="#780000"/>
<path d="M58.37 19.42C57.79 20.28 57.23 21.1 56.67 21.93L56.51 21.87C56.54 21.7 56.52 21.5 56.61 21.37C57.47 20.07 58.35 18.79 59.23 17.5C59.26 17.46 59.32 17.44 59.37 17.41C59.55 17.78 59.48 17.92 58.36 19.41L58.37 19.42Z" fill="#780000"/>
<path d="M82.8 43.95C82.92 43.82 83.02 43.61 83.16 43.59C83.75 43.5 84.35 43.46 85 43.4C85.05 43.4 85.05 43.4 85.08 43.43C85.18 43.48 85.25 43.49 85.35 43.52C85.4 43.52 85.42 43.52 85.44 43.52C85.52 43.56 85.6 43.6 85.72 43.65C85.75 43.65 85.76 43.65 85.78 43.69C85.87 43.75 85.94 43.78 86.01 43.8C85.98 43.89 85.99 44.03 85.93 44.07C84.95 44.79 83.9 45.22 82.62 44.78C82.59 44.67 82.59 44.63 82.64 44.61C83.73 44.96 84.59 44.62 85.46 43.94C84.52 43.52 83.66 43.57 82.81 43.96L82.8 43.95Z" fill="#780000"/>
<path d="M78.28 42.82C78.16 43.85 78.06 44.84 77.97 45.75C77.34 44.65 77.63 42.5 78.63 42C78.5 42.31 78.4 42.54 78.28 42.82Z" fill="#780000"/>
<path d="M11.15 42.93C11.15 42.93 11.14 42.93 11.13 42.93C11.16 42.89 11.16 42.88 11.15 42.93Z" fill="#780000"/>
<path d="M75.95 46.67C75.82 46.57 75.71 46.52 75.59 46.46C75.69 45.49 76.1 45.16 76.88 45.51C76.67 45.98 76.62 46.55 75.96 46.66L75.95 46.67ZM76.14 45.78L75.81 46.51L75.97 46.6C76.13 46.4 76.31 46.2 76.45 45.98C76.47 45.95 76.31 45.81 76.14 45.78Z" fill="#780000"/>
<path d="M21.25 48.22C21.25 48.22 21.24 48.22 21.22 48.22C21.22 48.22 21.23 48.22 21.24 48.21L21.25 48.22Z" fill="#780000"/>
<path d="M85.97 45.91C85.97 45.91 85.9701 45.91 85.9601 45.91C85.9601 45.91 85.9401 45.91 85.9301 45.9C85.9401 45.9 85.96 45.9 85.97 45.9V45.91Z" fill="#780000"/>
<path d="M85.97 45.91C85.97 45.91 85.9701 45.91 85.9601 45.91C85.9601 45.91 85.9401 45.91 85.9301 45.9C85.9401 45.9 85.96 45.9 85.97 45.9V45.91Z" fill="#780000"/>
<path d="M81.24 44.18C81.24 44.18 81.25 44.17 81.25 44.16C81.25 44.16 81.24 44.19 81.24 44.18Z" fill="#780000"/>
<path d="M61.4601 54.41C60.7401 54.41 60.0601 54.39 59.3801 54.37C58.8301 54.35 58.2801 54.31 57.6801 54.28C57.9101 54.23 58.2 54.13 58.48 54.13C60.19 54.13 61.9101 54.13 63.6201 54.13C63.7801 54.13 63.93 54.1 64.19 54.05C65.71 54.05 67.13 54.05 68.59 54.08C68.64 54.08 68.66 54.08 68.72 54.08C68.97 54.1 69.1801 54.11 69.3801 54.14C69.3601 54.19 69.36 54.23 69.34 54.26C68.73 54.31 68.17 54.37 67.61 54.43C67.56 54.43 67.5001 54.43 67.3701 54.42C66.8401 54.42 66.39 54.42 65.95 54.43C65.61 54.43 65.27 54.43 64.84 54.43C63.81 54.45 62.88 54.46 61.94 54.47C61.94 54.47 61.94 54.48 61.92 54.46C61.82 54.43 61.75 54.42 61.67 54.42C61.62 54.42 61.56 54.41 61.47 54.42L61.4601 54.41Z" fill="#780000"/>
<path d="M55.55 56.08C57.3 56.08 59.01 56.09 60.7701 56.1C61.14 56.17 61.4601 56.24 61.7101 56.34C59.7401 56.38 57.8401 56.38 55.9301 56.39C55.0101 56.41 54.0801 56.42 53.1201 56.42C52.7401 56.36 52.39 56.31 52.05 56.26V56.15C52.52 56.13 52.9901 56.1 53.5101 56.09C54.1501 56.09 54.73 56.08 55.31 56.07C55.37 56.07 55.4301 56.08 55.5401 56.07L55.55 56.08Z" fill="#780000"/>
<path d="M69.74 52.53C69.57 52.53 69.41 52.53 69.15 52.53C68.93 52.54 68.8 52.55 68.67 52.56C68.34 52.56 68.01 52.56 67.58 52.56C67.13 52.59 66.77 52.62 66.36 52.64C65.79 52.64 65.27 52.64 64.75 52.65C64.66 52.65 64.57 52.64 64.38 52.63C63.78 52.56 63.28 52.48 62.77 52.4C62.77 52.4 62.79 52.44 62.81 52.43C64.26 52.38 65.7 52.33 67.23 52.29C67.38 52.29 67.43 52.27 67.54 52.27C68.83 52.22 70.06 52.17 71.3 52.12C71.3 52.12 71.34 52.12 71.36 52.12C71.46 52.12 71.54 52.09 71.61 52.06C71.61 52.06 71.61 52.11 71.69 52.11C72.47 52.13 73.18 52.15 73.89 52.17C73.79 52.22 73.7 52.27 73.57 52.34C73.16 52.37 72.79 52.38 72.33 52.4C72.21 52.41 72.17 52.42 72.12 52.43C71.47 52.43 70.83 52.45 70.09 52.46C69.91 52.48 69.82 52.5 69.73 52.51L69.74 52.53Z" fill="#780000"/>
<path d="M49.77 53.86C49.45 53.87 49.1301 53.88 48.7101 53.89C47.5001 53.88 46.39 53.87 45.28 53.86C45.24 53.83 45.2001 53.81 45.2101 53.76C45.7701 53.7 46.2801 53.65 46.7901 53.65C48.8801 53.65 50.97 53.66 53.05 53.68C53.69 53.68 54.34 53.71 54.98 53.72C54.95 53.73 54.9401 53.76 54.9001 53.8C53.1601 53.83 51.4601 53.85 49.7601 53.88L49.77 53.86Z" fill="#780000"/>
<path d="M68.71 56.59C68.56 56.57 68.46 56.55 68.36 56.52V56.43C68.6 56.43 68.84 56.43 69.17 56.42C69.5 56.39 69.73 56.37 70.02 56.37C70.4 56.37 70.72 56.37 71.1 56.37C71.31 56.37 71.48 56.36 71.64 56.35C72.28 56.35 72.92 56.37 73.64 56.37C73.72 56.37 73.78 56.35 73.83 56.37C74.21 56.39 74.54 56.39 74.87 56.39C74.98 56.44 75.09 56.48 75.14 56.56C73.91 56.6 72.74 56.61 71.56 56.61C71.56 56.61 71.56 56.61 71.51 56.59C71.01 56.57 70.55 56.57 70.1 56.58C70.01 56.58 69.92 56.58 69.75 56.57C69.57 56.57 69.47 56.58 69.37 56.59C69.17 56.59 68.96 56.59 68.72 56.59H68.71Z" fill="#780000"/>
<path d="M73.4199 54.89C74.1899 54.89 74.9499 54.88 75.7699 54.86C76.1299 54.86 76.4399 54.86 76.8499 54.87C77.5499 54.89 78.1599 54.89 78.7699 54.9C78.7699 54.94 78.7799 54.97 78.7699 55.02C78.3599 55.06 77.9899 55.1 77.6199 55.11C76.1399 55.11 74.6699 55.11 73.1899 55.09C73.2699 55.01 73.3499 54.95 73.4199 54.89Z" fill="#780000"/>
<path d="M75.57 49.94C75.27 49.8 74.99 49.65 74.62 49.46C74.65 49.29 74.69 49.05 74.76 48.78C74.79 48.74 74.83 48.76 74.83 48.76C74.83 48.76 74.87 48.76 74.89 48.79C75.13 49.06 75.32 49.3 75.56 49.5C75.65 49.58 75.84 49.58 75.97 49.54C76.04 49.52 76.13 49.33 76.1 49.27C76.04 49.14 75.92 49.02 75.8 48.95C75.7 48.9 75.55 48.93 75.25 48.91C75.53 48.77 75.66 48.7 75.82 48.66C76.01 48.8 76.16 48.93 76.32 49.06C76.49 49.51 76.38 49.8 75.84 49.91C75.73 49.94 75.65 49.94 75.57 49.95V49.94Z" fill="#780000"/>
<path d="M55.94 51.06C55.83 51.14 55.67 51.22 55.51 51.22C54.39 51.22 53.27 51.22 52.1 51.21C50.98 51.18 49.87 51.16 48.75 51.11C49.86 51.06 50.96 51.02 52.12 51.04V51.05C53.38 51.02 54.65 51.02 55.95 51.06H55.94Z" fill="#780000"/>
<path d="M71.55 51.33C70.37 51.33 69.22 51.33 68 51.3C67.91 51.24 67.88 51.19 67.85 51.15C69.18 51.15 70.52 51.14 71.91 51.15C71.84 51.21 71.71 51.27 71.55 51.34V51.33Z" fill="#780000"/>
<path d="M42.9301 53.89C42.8101 53.93 42.7001 53.94 42.5101 53.94C42.2901 53.92 42.16 53.92 41.98 53.91C41.35 53.86 40.7701 53.82 40.1801 53.79C41.0801 53.76 41.9801 53.74 42.9301 53.73C42.9701 53.78 42.9601 53.82 42.9301 53.9V53.89Z" fill="#780000"/>
<path d="M72.83 49.88C71.98 49.95 71.13 49.98 70.28 50.02V49.78C70.97 49.78 71.67 49.78 72.42 49.78C72.59 49.8 72.71 49.83 72.83 49.89V49.88Z" fill="#780000"/>
<path d="M75.5601 36.01C74.1801 33.47 72.1301 31.62 69.7201 30.11C66.9901 28.4 64.0201 27.28 60.8501 26.77C59.2601 26.51 57.6401 26.43 56.0301 26.41C55.1901 26.4 54.3601 26.71 53.5101 26.83C53.2501 26.87 52.8901 26.87 52.7101 26.72C50.7701 25.03 48.4801 24.32 45.9601 24.32C42.5901 24.32 39.5601 25.47 36.7001 27.14C32.9001 29.36 29.9201 32.35 28.0201 36.34C27.0301 38.44 26.4501 40.63 26.9701 42.97C27.1001 43.62 27.3601 44.24 27.5601 44.87C28.1901 45.8 28.8101 46.73 29.4601 47.7C29.6001 47.86 29.7301 47.99 29.8701 48.15C29.9201 48.2 29.9401 48.21 29.9801 48.25C30.5201 48.67 31.0501 49.07 31.6001 49.5C31.6501 49.54 31.6901 49.55 31.7101 49.61C31.7601 49.66 31.8001 49.68 31.8501 49.72V49.75C32.3601 50.01 32.8501 50.28 33.3701 50.57C33.6001 50.66 33.8101 50.73 34.0501 50.82C35.2501 51.1 36.4201 51.35 37.6201 51.62C37.7501 51.67 37.8401 51.68 37.9601 51.71C39.4001 51.55 40.7901 51.39 42.2401 51.22C42.3401 51.19 42.4001 51.15 42.5401 51.11C44.4101 50.55 46.1501 49.87 47.7601 48.88C48.4101 48.48 49.1401 48.12 49.6401 47.57C50.0401 47.14 50.3001 47.01 50.7901 47.3C54.1701 49.34 57.8901 50.32 61.7701 50.77C62.0601 50.77 62.3401 50.77 62.6801 50.8C63.0801 50.81 63.4401 50.8 63.8501 50.8C65.0601 50.64 66.2401 50.46 67.4601 50.29C67.7101 50.24 67.9101 50.18 68.1501 50.12C69.4301 49.53 70.6701 48.94 71.9601 48.3C72.2001 48.12 72.3901 47.98 72.5901 47.8C74.8301 46.02 75.8601 43.62 76.3701 40.93C76.7101 39.18 76.4001 37.55 75.5501 35.99L75.5601 36.01ZM75.7401 41.56C75.7401 41.56 75.7401 41.62 75.7501 41.65C75.1901 44.02 74.0601 45.96 72.2301 47.49C70.5001 48.95 68.4501 49.66 66.2701 50.06C65.9301 50.08 65.6801 50.13 65.4401 50.17C65.1801 50.17 65.0001 50.19 64.8301 50.2C64.7301 50.2 64.7101 50.2 64.7001 50.23C64.5801 50.26 64.5201 50.27 64.4801 50.29C64.0001 50.28 63.6001 50.29 63.2001 50.29C62.8501 50.29 62.6101 50.29 62.3601 50.29C62.0501 50.27 61.8501 50.27 61.6401 50.28C61.3001 50.22 61.0501 50.19 60.8001 50.17C56.6301 49.56 52.7801 48.32 49.4301 45.87C46.8701 43.99 44.8601 41.67 44.2301 38.43C43.8401 36.37 44.2901 34.42 45.1301 32.53V33.16C45.1301 33.16 45.1301 33.19 45.1301 33.2C45.1901 33.98 45.2801 34.68 45.3601 35.39C45.3601 35.39 45.3701 35.39 45.3801 35.39C45.3901 35.5 45.4001 35.57 45.4101 35.64C45.4301 35.67 45.4601 35.71 45.4801 35.81C46.3001 38.21 47.8101 40.02 49.6801 41.57C51.9801 43.48 54.6401 44.71 57.4901 45.56C58.1501 45.76 58.8201 45.92 59.4901 46.09C59.7901 46.17 59.8901 46.16 59.9001 45.98C59.9501 46.09 60.0201 46.2 60.1201 46.22C60.7301 46.33 61.3501 46.44 61.9801 46.51C63.9901 46.75 66.0001 46.66 68.0001 46.35C68.7001 46.24 69.3901 46.01 70.1201 45.8C70.7401 45.5 71.3301 45.23 71.9001 44.93C71.9801 44.8 72.0701 44.68 72.1601 44.56C72.0701 44.68 71.9901 44.8 71.9401 44.92C72.3101 44.75 72.6301 44.56 72.9501 44.38C72.9501 44.38 72.9601 44.37 72.9701 44.37C73.4001 44.05 73.7901 43.74 74.1801 43.44C74.1801 43.44 74.1901 43.42 74.2001 43.41C74.5201 42.97 74.8101 42.56 75.0601 42.15C74.6901 42.54 74.3701 42.93 74.0701 43.33H74.0601C73.7501 43.49 73.5101 43.63 73.2601 43.78C73.1401 43.87 73.0101 43.98 72.8901 44.15C72.8301 44.1 72.7801 44.1 72.6901 44.1C72.6601 44.11 72.6601 44.15 72.6601 44.16C72.6601 44.16 72.6501 44.16 72.6501 44.13C72.6501 44.12 72.6501 44.13 72.6501 44.12C72.7701 43.88 72.8901 43.64 73.0601 43.38C73.1901 43.3 73.2801 43.26 73.3601 43.22C73.3601 43.22 73.3601 43.22 73.3801 43.18C74.9501 41.89 75.6901 39.33 74.8401 37.23C74.1201 35.46 72.9901 34.03 71.5801 32.8C69.2101 30.74 66.4701 29.37 63.4801 28.48C61.0401 27.76 58.5501 27.29 55.9901 27.46H55.9401C55.4801 27.51 55.0701 27.57 54.6601 27.63C54.6601 27.68 54.6601 27.73 54.6601 27.79C55.0001 27.79 55.3301 27.79 55.7101 27.78C55.9101 27.75 56.0701 27.73 56.2001 27.69C57.5101 27.85 58.7401 27.97 59.9701 28.08C61.2001 28.36 62.4501 28.55 63.6401 28.92C66.4601 29.79 69.0501 31.1 71.3201 33.14C71.4501 33.27 71.5401 33.35 71.6201 33.44C72.8301 34.46 73.8101 35.67 74.4501 37.1C75.1401 38.65 75.0101 40.21 73.9801 41.63C73.6801 42.03 73.3801 42.43 73.0001 42.81C73.0101 41.66 72.7201 40.62 72.1701 39.65C71.3701 38.23 70.2801 37.07 69.0201 36.07C68.7401 35.85 68.4601 35.63 68.1201 35.37L67.9301 35.21C67.9301 35.21 67.8401 35.18 67.7401 35.13C66.8601 34.64 66.0501 34.13 65.2001 33.75C64.0701 33.26 62.9001 32.87 61.7501 32.43C60.7901 32.25 59.8301 32.09 58.7901 31.89C58.0101 31.9 57.3301 31.94 56.6601 31.97C56.7601 32 56.8601 32.02 57.0301 32.08C57.5401 32.18 57.9901 32.24 58.4801 32.29C58.9201 32.33 59.3101 32.37 59.7001 32.45C63.5301 33.22 67.0501 34.67 69.9101 37.44C71.2301 38.72 72.2601 40.19 72.5501 42.05C72.6301 42.58 72.6601 43.18 72.1101 43.53C70.1101 44.81 67.9201 45.38 65.5601 45.32C65.0401 45.35 64.5101 45.48 64.0001 45.41C62.3501 45.21 60.7101 44.94 59.0101 44.66C58.9501 44.63 58.9001 44.59 58.8501 44.61C55.6001 43.84 52.6801 42.51 50.1301 40.47C50.8901 39.14 51.6101 37.89 52.3301 36.63C52.5201 35.94 52.7601 35.25 52.8901 34.55C53.0401 33.75 53.0901 32.93 53.1701 32.02C53.0401 31.3 52.9701 30.68 52.8101 30.07C52.4301 28.58 51.7001 27.3 50.3301 26.51C48.8801 25.67 47.2701 25.3 45.6101 25.37C43.3601 25.46 41.2201 26.07 39.1901 27.04C35.4701 28.8 32.3801 31.32 30.0401 34.76C28.7301 36.68 27.8501 38.72 27.8801 41.08C27.8801 41.55 28.1001 42.01 28.2101 42.48C28.1201 40.92 28.3201 39.39 28.8301 37.92C29.5001 36.02 30.6001 34.36 31.9301 32.85C34.6501 29.77 37.9801 27.61 41.9101 26.39C43.9701 25.75 46.0701 25.54 48.2201 26C50.3101 26.45 52.0001 28.21 52.3401 30.34C51.7001 30.08 51.0901 29.77 50.4401 29.59C47.6901 28.85 45.0401 29.35 42.4501 30.35C39.3101 31.56 36.6501 33.47 34.4801 36.05C32.7101 38.15 31.5001 40.54 31.2301 43.28C31.1401 44.28 31.4601 45.32 31.5901 46.31C30.6501 45.97 29.7501 45.3 29.0001 44.33C28.7001 44.38 28.6901 44.39 28.8701 44.65C29.7101 45.88 30.8501 46.69 32.2801 47.1C32.8301 47.23 33.3901 47.36 34.0001 47.54C34.0901 47.59 34.1301 47.6 34.2301 47.6C34.7601 47.6 35.2201 47.62 35.6901 47.6C36.3101 47.57 36.9301 47.51 37.5501 47.42C37.6801 47.41 37.8501 47.38 37.8701 47.28H37.9601C37.9601 47.28 38.0301 47.28 38.0901 47.28C38.0901 47.28 38.0901 47.28 38.0901 47.29H38.1401C39.8101 47.01 41.3201 46.57 42.7301 45.85C42.7301 45.84 42.7301 45.83 42.7301 45.82C42.7301 45.82 42.7401 45.84 42.7501 45.85C42.8801 45.81 42.9701 45.78 43.0601 45.74V45.71C43.1301 45.67 43.1801 45.63 43.2201 45.55C43.2101 45.54 43.1901 45.52 43.1801 45.5C43.1901 45.51 43.2101 45.53 43.2301 45.54C43.7001 45.38 44.0701 45.17 44.4401 44.92C44.4401 44.9 44.4201 44.88 44.4101 44.87C44.9401 44.57 45.4501 44.2 45.9501 43.82C46.3601 43.5 46.4301 43.91 46.6001 44.1C46.6801 44.16 46.7101 44.17 46.7301 44.19C47.8001 45.15 48.8501 46.07 49.8601 46.96C47.5901 48.67 45.0301 50.02 42.1801 50.78C40.2101 51.33 38.3101 51.43 36.3801 51.07C33.4401 50.55 31.1801 49.07 29.4201 46.75C29.5501 46.79 29.6801 46.84 29.8001 46.88C29.8901 46.85 29.8901 46.79 29.8901 46.74C27.5601 45.17 27.0501 42.91 27.3501 40.42C27.8601 36.18 30.1601 32.92 33.2601 30.15C36.3001 27.44 39.8201 25.61 43.8501 24.94C46.6601 24.47 49.3701 24.92 51.7101 26.69C52.0801 26.98 52.3201 27.45 52.6101 27.84C52.6101 27.84 52.6101 27.84 52.6101 27.85C52.8201 28.36 53.0201 28.84 53.2701 29.41C53.3001 29.2 53.3101 29.1 53.3201 29C53.3001 28.96 53.2801 28.93 53.2501 28.82C53.1901 28.58 53.1401 28.43 53.0801 28.27C53.0001 28.13 52.9201 27.99 52.8101 27.83C52.9801 27.86 53.0901 27.92 53.1901 27.99C53.6801 28.63 54.1301 29.2 54.5901 29.78C54.9301 30.39 55.2401 30.93 55.5501 31.47C55.6901 31.88 55.7901 32.21 55.9001 32.54C56.3401 34.21 56.3401 35.81 56.0101 37.41C55.6801 38.99 55.1101 40.47 54.3201 41.86C54.1901 42.08 54.1301 42.33 54.0401 42.57C54.1101 42.61 54.1701 42.64 54.2401 42.68C54.5001 42.34 54.7501 41.99 55.0001 41.64C55.0601 41.59 55.0701 41.55 55.0701 41.55C55.2301 41.19 55.3701 40.86 55.5001 40.52C55.7701 39.91 55.9701 39.34 56.1701 38.77C56.9101 36.29 56.9501 33.91 56.1201 31.52C56.0601 31.24 55.9701 31.05 55.8901 30.87C55.8301 30.71 55.7701 30.63 55.7101 30.55C55.7101 30.47 55.6801 30.44 55.6801 30.44C55.6401 30.33 55.5901 30.27 55.5501 30.21C55.5301 30.14 55.5501 30.14 55.5501 30.14C55.4401 29.97 55.3201 29.8 55.2101 29.61C55.0801 29.4 54.9601 29.27 54.8501 29.13C54.2801 28.44 53.7401 27.81 53.1101 27.09C53.7401 27.03 54.2901 26.93 54.8401 26.92C55.9801 26.89 57.1301 26.86 58.2701 26.9C60.4301 26.99 62.5201 27.48 64.5601 28.17C67.5401 29.17 70.2301 30.7 72.5101 32.86C74.2301 34.48 75.6101 36.35 75.9401 38.77C76.0401 39.51 75.7801 40.3 75.6801 41.07C75.5301 41.39 75.4001 41.66 75.3101 41.97C75.4601 41.88 75.5901 41.76 75.7201 41.61L75.7401 41.56ZM44.3701 44.64C44.3701 44.64 44.3301 44.59 44.3001 44.57C43.8401 44.8 43.4201 45.02 43.0001 45.24C43.0001 45.24 43.0034 45.24 43.0101 45.24C43.0101 45.24 42.9901 45.27 42.9901 45.31C42.8101 45.31 42.6701 45.36 42.5601 45.44C42.5601 45.44 42.5601 45.44 42.5601 45.45C42.4301 45.48 42.3501 45.54 42.2701 45.59C42.1701 45.64 42.0701 45.68 41.8901 45.74C41.7301 45.78 41.6401 45.82 41.5501 45.85C41.5401 45.89 41.5101 45.91 41.4101 45.9C41.1401 45.97 40.9301 46.05 40.7201 46.14C40.6901 46.16 40.6501 46.17 40.5501 46.21C40.3601 46.27 40.2501 46.33 40.1301 46.39C40.0401 46.42 39.9501 46.44 39.8101 46.47C39.7701 46.47 39.7701 46.47 39.7701 46.47C39.7501 46.51 39.7201 46.52 39.6201 46.5C38.9801 46.63 38.4001 46.78 37.7501 46.97C37.7001 46.98 37.6501 47 37.4901 47C37.2901 47 37.2101 47.03 37.1201 47.04C37.0801 47.04 37.0401 47.04 36.8801 47.04C36.0801 47.08 35.3901 47.11 34.6901 47.15C34.6701 47.14 34.6601 47.13 34.6301 47.12C34.6201 47.12 34.6001 47.1 34.5801 47.09C34.5601 47.09 34.5401 47.07 34.5101 47.06C33.8601 46.91 33.2801 46.8 32.7101 46.68C32.6001 46.65 32.4701 46.56 32.4201 46.46C31.9701 45.62 31.6801 44.72 31.7101 43.76C31.8001 41.58 32.5501 39.62 33.7501 37.82C34.9601 36 36.4501 34.43 38.2401 33.14C40.3701 31.61 42.6701 30.47 45.2501 29.85C45.6501 29.78 46.0801 29.45 46.3401 30.02C46.7701 29.56 47.4301 29.46 48.5701 29.67C48.8101 29.67 49.0601 29.67 49.3501 29.69C49.4801 29.71 49.5501 29.72 49.6401 29.75C49.6501 29.76 49.6501 29.78 49.6501 29.78C49.8101 29.78 49.9701 29.8 50.1601 29.85C50.2301 29.88 50.2601 29.87 50.3301 29.89C50.4601 29.92 50.5601 29.94 50.6901 29.99C51.1801 30.23 51.6601 30.42 52.1101 30.65C53.0601 31.15 52.7401 32.07 52.6901 32.81C52.5301 34.95 51.7701 36.89 50.6101 38.69C50.3301 39.14 50.1401 39.63 49.8701 40.18C48.9901 39.47 48.2901 38.6 47.6601 37.68C47.3401 37.21 47.1501 36.67 46.8801 36.18C46.6601 35.8 46.7201 35.47 46.9601 35.09C46.9601 35.06 46.9601 35.04 46.9301 35.02C46.9201 35.02 46.9001 35.01 46.8901 34.99C46.7601 35.01 46.6601 35.06 46.5101 35.13C46.2901 33.79 46.3501 32.53 46.8901 31.27C47.0001 31.14 47.1001 31.03 47.1901 30.92C47.1901 30.9 47.1901 30.88 47.2401 30.79C47.2601 30.67 47.2401 30.62 47.1801 30.58C47.0001 30.8 46.8501 31.01 46.7401 31.23C45.5501 33.13 45.8401 35.05 46.7101 36.88C48.1301 39.81 50.6501 41.64 53.4501 43.06C57.4601 45.09 61.7801 45.94 66.2701 45.86C66.4901 45.81 66.7001 45.77 66.9601 45.73H67.0101C66.9001 45.81 66.7901 45.9 66.6101 46.01C65.9401 46.13 65.3501 46.31 64.7601 46.28C63.1501 46.19 61.5501 46 59.8801 45.88V45.83C57.6801 45.38 55.6101 44.68 53.6501 43.67C51.4601 42.53 49.4501 41.16 47.8101 39.28C46.7601 38.09 46.1001 36.7 45.4601 35.27C45.4201 34.51 45.3301 33.82 45.2101 33.13C45.4501 32.4 45.6401 31.67 45.8201 30.95C45.8701 30.76 45.9101 30.51 45.5701 30.73C44.5601 32.15 44.0601 33.68 43.7701 35.3C43.3001 37.91 43.9301 40.24 45.4001 42.38C45.6801 42.78 46.0501 43.14 45.6801 43.68C45.5201 43.79 45.4401 43.85 45.3601 43.91C45.2001 43.95 45.1201 44 45.0501 44.04C44.9201 44.15 44.8501 44.2 44.7701 44.26C44.5701 44.33 44.4501 44.4 44.3401 44.48C44.3401 44.53 44.3401 44.57 44.3501 44.61L44.3701 44.64ZM67.1301 45.75H67.1601C67.3801 45.68 67.5701 45.57 67.7701 45.52C68.9401 45.24 70.1201 44.96 71.3501 44.68C71.5001 44.62 71.6301 44.56 71.7601 44.5C71.6401 44.57 71.5201 44.62 71.4001 44.68C71.0701 44.84 70.7501 45.06 70.4001 45.15C69.3701 45.39 68.3301 45.57 67.2201 45.76C67.1901 45.76 67.1501 45.75 67.1301 45.75Z" fill="#780000"/>
<path d="M27.2 46.4C27.11 46.37 27.04 46.37 26.94 46.36C26.58 46.44 26.26 46.56 25.93 46.62C25.77 46.65 25.61 46.58 25.38 46.55C24.99 46.91 24.67 47.31 24.35 47.7C24.23 47.59 24.05 47.38 23.84 47.28C23.71 47.23 23.49 47.33 23.34 47.43C23.24 47.5 23.2 47.65 23.13 47.77C22.83 48.3 22.46 48.82 22.83 49.5C22.57 49.53 22.33 49.56 22.09 49.58C22.09 49.56 22.09 49.55 22.09 49.53C21.98 49.4 21.86 49.32 21.8 49.21C21.61 48.88 21.44 48.55 21.23 48.22C21.23 48.22 21.22 48.22 21.2 48.22C21.2 48.22 21.21 48.22 21.22 48.21C21.28 48.19 21.3 48.18 21.32 48.17C21.29 48.1 21.25 48.04 21.21 47.89C21.31 47.67 21.4 47.48 21.55 47.36C22.06 46.99 22.04 46.5 21.82 46.02C21.72 45.78 21.49 45.59 21.31 45.37C21.79 44.77 21.75 43.66 21.22 43.22C20.23 42.42 19.96 42.44 19.05 43.44C18.51 42.19 18.41 42.21 17.07 42.46C16.5 42.57 16.27 43.07 16.27 44.07C15.88 44.21 15.51 44.34 15.14 44.51C14.76 45.12 14.87 45.85 15.45 46.48C15.35 46.64 15.24 46.8 15.06 47.07C15.62 47.35 16.15 47.63 16.74 47.93C16.59 47.58 16.48 47.35 16.4 47.16C16.2 47.13 16 47.09 15.8 47.06C15.88 46.88 15.94 46.68 16.05 46.51C16.1 46.42 16.21 46.37 16.29 46.3C16.29 46.3 16.35 46.33 16.38 46.33C16.79 46.2 17.16 46.08 17.53 45.92V45.9C17.59 46.04 17.63 46.11 17.66 46.18C17.72 46.18 17.78 46.2 17.91 46.24C17.95 46.56 17.92 46.84 17.88 47.2C18 47.11 18.09 47.06 18.16 46.99C18.38 46.79 18.59 46.59 18.81 46.4C18.97 46.61 19.12 46.8 19.28 47.01C19.27 47.03 19.25 47.05 19.25 47.07C19.55 47.41 19.85 47.7 20.19 47.99C20.24 47.99 20.28 47.99 20.32 47.99C20.3 47.99 20.28 48.01 20.25 48.02C20.12 48.18 20.03 48.34 19.91 48.4C19.51 48.57 19.09 48.69 18.71 48.83C18.36 48.52 18.01 48.21 17.69 47.93C17.58 48.07 17.44 48.31 17.39 48.3C16.88 48.12 16.61 48.48 16.29 48.73C16.26 48.78 16.23 48.82 16.18 48.89C16.31 49.72 15.65 49.3 15.32 49.45C15.25 49.49 15.23 49.52 15.18 49.53C15.07 49.69 14.97 49.83 14.85 50C14.82 50.03 14.83 50.04 14.82 50.04C14.77 50.37 14.59 50.73 14.69 51C14.82 51.36 15.15 51.65 15.44 52.04C15.05 52.51 15.01 53.19 15.15 53.93C15.17 53.96 15.18 53.97 15.18 53.97C15.96 54.21 16.74 54.47 17.44 53.72C17.81 54.25 18.17 54.72 18.92 54.3C18.45 54.06 17.71 54.04 17.87 53.35C17.99 52.86 17.86 52.09 18.76 52.01C19 51.77 18.58 51.25 19.23 51.19C19.28 51.15 19.28 51.12 19.3 51.06C19.06 50.84 18.59 50.59 18.62 50.51C18.78 50.01 18.42 49.27 19.16 49.05C19.48 48.96 19.89 49.01 20.21 49.13C20.33 49.17 20.35 49.58 20.35 49.82C20.35 50.08 20.28 50.33 20.22 50.62C20.22 50.62 20.22 50.64 20.22 50.65C19.92 50.75 19.45 50.4 19.52 51.03C19.79 50.96 20.01 50.88 20.24 50.77C20.42 50.82 20.58 50.83 20.6 50.83C20.78 51.23 20.9 51.51 21.05 51.84C21.08 51.88 21.1 51.88 21.16 51.88C21.65 51.42 21.25 50.92 21.16 50.5C21 49.83 20.62 49.2 20.31 48.52C20.36 48.51 20.55 48.46 20.79 48.43C20.92 48.36 21.01 48.28 21.17 48.19C21.06 48.27 20.97 48.35 20.9 48.42C21.23 48.85 21.55 49.27 21.94 49.7C21.94 49.72 21.93 49.73 21.91 49.75C21.94 49.99 21.98 50.19 21.99 50.22C22.25 50.33 22.39 50.39 22.54 50.49C22.54 50.49 22.53 50.49 22.51 50.49C22.17 50.95 22.18 51.39 22.41 51.93C22.5 51.42 22.57 51.01 22.63 50.58C22.92 50.11 23.37 49.92 23.93 49.96C23.59 49.66 23.09 49.45 23 49.11C22.91 48.79 23.23 48.36 23.4 47.96C23.81 47.47 24.13 47.88 24.45 48.02C24.6 48.09 24.7 48.26 24.86 48.42C24.88 48.28 24.89 48.1 24.84 47.93C24.72 47.52 24.67 47.22 25.27 47.2C25.57 47.2 25.85 46.92 26.15 46.84C26.42 46.75 26.72 46.75 27 46.71C27.03 46.99 27.06 47.27 27.09 47.55C27.09 47.6 27.09 47.64 27.15 47.72C27.26 47.48 27.36 47.24 27.47 47C28.12 47.26 28.29 47.73 27.96 48.26C27.89 48.37 27.83 48.48 27.8 48.61C27.58 48.67 27.39 48.76 27.21 48.86C27.1 48.93 27.03 49.03 26.99 49.12C27.3 49.07 27.56 49.03 27.82 48.94C27.87 48.92 27.87 48.77 27.87 48.63C27.95 48.61 28 48.58 28.09 48.54C28.18 48.4 28.24 48.27 28.33 48.11C28.5 47.11 28.36 46.91 27.16 46.35L27.2 46.4ZM15.29 50.62C15.29 50.62 15.38 50.53 15.39 50.48C15.44 50.28 15.46 49.91 15.52 49.91C15.84 49.88 16.18 49.94 16.52 49.97C16.35 49.02 16.63 48.78 17.66 48.79C18.04 48.79 18.33 48.65 18.43 49.13C18.54 49.74 18.3 50.43 17.91 50.59C17.88 50.6 17.84 50.61 17.82 50.61C17.78 50.45 17.75 50.33 17.69 50.08C17.6 50.34 17.56 50.45 17.51 50.57C17.19 50.36 16.9 50.17 16.57 50C16.83 50.28 17.13 50.53 17.47 50.77C17.27 50.94 17.14 51.07 16.98 51.24C17 51.26 17.11 51.34 17.37 51.55C16.72 51.59 16.22 51.71 15.76 51.63C15.29 51.56 15.13 51.09 15.29 50.64V50.62ZM17.86 52.51C17.69 52.85 17.62 53.2 17.41 53.35C17.05 53.6 16.7 54.21 16.13 53.6C16.06 53.52 15.8 53.6 15.5 53.63C15.61 53.17 15.58 52.65 15.82 52.4C16.18 52.03 16.74 51.85 17.31 51.54C17.34 51.83 17.36 51.95 17.37 52.1C17.55 52.2 18.14 51.86 17.85 52.5L17.86 52.51ZM18.35 52C18.09 51.71 17.87 51.53 17.75 51.31C17.72 51.24 17.95 51.03 18.05 50.89C18.2 51.02 18.35 51.16 18.5 51.29C18.45 51.53 18.41 51.66 18.34 52H18.35ZM17.56 45.68C17.56 45.68 17.55 45.74 17.55 45.77C17.1 45.92 16.65 46.06 16.21 46.24C16.19 46.24 16.17 46.23 16.14 46.21C15.51 46.19 15.4 46.03 15.45 45.49C15.5 45.07 15.31 44.59 15.98 44.53C16.41 44.49 16.77 44.55 17.09 44.9C17.31 45.13 17.82 45.12 17.56 45.68ZM18.72 45.91C18.59 46.05 18.25 46 17.82 46.06C18 45.67 18.09 45.47 18.18 45.26C18.13 45.18 18.05 45.13 17.96 45.09C18.07 45.13 18.16 45.16 18.28 45.2C18.42 45.17 18.52 45.14 18.62 45.07V45.04C18.62 44.98 18.62 44.95 18.57 44.91C18.31 44.75 18.09 44.59 17.84 44.41C17.83 44.65 17.81 44.84 17.84 45.04C17.25 44.77 16.73 44.17 16.75 43.81C16.81 43.05 17.17 42.72 17.91 42.76C18.44 42.78 18.85 43.4 18.8 44.14C18.79 44.38 18.71 44.61 18.65 44.83C18.62 44.96 18.62 45 18.62 45.05C19.11 45.33 18.91 45.7 18.71 45.92L18.72 45.91ZM20.59 47.98C20.59 47.98 20.52 47.98 20.5 47.99C20.4 47.77 20.3 47.55 20.2 47.32C19.77 47.63 19.67 47.23 19.46 46.94C19.45 46.94 19.44 46.95 19.43 46.96C19.45 46.94 19.46 46.92 19.48 46.89C19.22 46.1033 19.5067 45.6767 20.34 45.61C20.41 45.61 20.49 45.57 20.6 45.53C20.64 45.46 20.64 45.41 20.64 45.33C20.48 45.3 20.32 45.32 20.13 45.33C20.06 45.35 20.04 45.36 19.96 45.36C19.03 45.24 18.85 44.96 19.16 44.2C19.2 44.11 19.21 44 19.27 43.93C19.51 43.65 19.75 43.17 20.01 43.15C20.5 43.12 21 43.43 21.2 43.92C21.38 44.35 21.44 44.86 20.9 45.21C20.85 45.3 20.81 45.36 20.77 45.45C20.84 45.54 20.9 45.61 20.99 45.66C21.69 46.1 21.74 46.34 21.26 47.01C21.04 47.31 20.83 47.63 20.58 47.96L20.59 47.98ZM22.69 50.11L22.63 50.03C22.68 50 22.74 49.98 22.8 49.95C22.8 50.04 22.75 50.08 22.69 50.11Z" fill="#780000"/>
<path d="M88.27 40.77C87.95 41.03 87.72 41.21 87.47 41.42C87.39 41.49 87.33 41.53 87.21 41.58C87.09 41.62 87.03 41.65 86.98 41.67C86.85 41.72 86.72 41.77 86.6 41.83C86.6 41.85 86.6 41.86 86.6 41.88C86.22 41.92 85.84 41.95 85.42 42.01C85.32 42.02 85.26 42.02 85.16 41.98C85.01 41.9 84.91 41.85 84.81 41.8C84.81 41.8 84.81 41.81 84.8 41.81C84.25 41.54 83.97 41.85 83.72 42.22C83.54 42.38 83.36 42.53 83.18 42.69C83.15 42.66 83.11 42.63 83.09 42.6C83.17 42.49 83.25 42.38 83.37 42.22C83.43 42.15 83.44 42.13 83.45 42.09C83.67 41.84 83.88 41.6 84.1 41.34C84.33 41.43 84.56 41.52 84.82 41.67C85.4 41.64 85.97 41.64 86.55 41.64C86.91 41.4 87.27 41.15 87.62 40.9C87.3733 40.72 86.66 40.6267 85.48 40.62C85.76 40.53 86.04 40.43 86.36 40.31C86.48 40.28 86.57 40.28 86.75 40.29C87 40.29 87.16 40.29 87.32 40.29C87.6 40.42 87.87 40.56 88.27 40.74V40.77Z" fill="#780000"/>
<path d="M84.6801 39.11C84.7101 39 84.7101 38.97 84.6901 38.93C84.6301 38.36 84.5701 37.78 84.5101 37.21C83.7101 38.14 83.4801 39.16 83.8501 40.37C83.9901 39.9 84.1201 39.46 84.2501 39.02C84.2701 39.02 84.2901 39.01 84.3101 39.01C84.3101 39.46 84.3401 39.91 84.2901 40.36C84.2801 40.49 84.0501 40.59 83.8801 40.71C83.8801 40.7 83.8701 40.69 83.8701 40.68V40.72C83.7801 40.68 83.6301 40.66 83.6101 40.6C83.3001 39.56 83.2201 38.53 83.7401 37.48C83.7701 37.43 83.7801 37.41 83.8101 37.37C84.0001 37.13 84.1701 36.91 84.3601 36.65C84.4101 36.63 84.4501 36.63 84.5201 36.62C85.0701 37.65 85.1101 39.15 84.5901 39.72C84.6201 39.5 84.6301 39.34 84.6701 39.11H84.6801Z" fill="#780000"/>
<path d="M6.85997 46.71C7.44997 47.2 8.02997 47.59 8.74997 47.72C9.68997 47.89 10.55 47.76 11.34 46.88H9.64997C9.88997 46.95 10.14 47.04 10.39 47.1C9.85997 47.64 8.91997 47.52 7.57997 46.72C8.37997 46.36 9.14998 46.08 10.03 46.49C10.27 46.6 10.63 46.44 11 46.4C11.01 46.37 11 46.33 10.99 46.3C11.02 46.33 11.05 46.37 11.07 46.4C12.12 46.85 13.17 47.28 14.3 47.75C14.41 47.82 14.43 47.88 14.46 47.95C14.39 47.95 14.32 47.96 14.24 47.97C14.13 47.97 14.01 47.97 13.85 48.02C13.3 48.03 12.76 48.06 12.21 48.11C12.16 48.11 12.11 48.18 12.09 48.25C12.02 47.95 11.66 47.97 11.52 48C10.91 48.11 10.31 48.33 9.70998 48.6C10.26 48.57 10.82 48.53 11.28 48.49C10.81 49.09 10.24 49.68 9.85997 50.37C9.49997 51.03 9.31997 51.8 9.53997 52.63C9.93997 52.42 10.23 52.27 10.55 52.1C10.73 51.98 10.87 51.88 11.06 51.74C11.22 51.63 11.31 51.55 11.41 51.48C11.47 51.43 11.52 51.37 11.61 51.26C11.81 50.57 11.99 49.93 12.16 49.25C12.16 49.16 12.16 49.1 12.13 49.04C12.06 49.04 12.03 49.04 12 49.08C11.99 49.15 11.97 49.17 11.93 49.19C11.93 49.19 11.94 49.19 11.94 49.23C11.75 50.57 11 51.42 9.82997 52.05C9.85997 50.77 10.23 49.74 11.29 48.99C11.58 48.75 11.84 48.55 12.1 48.34C12.1 48.33 12.1 48.31 12.1 48.31C12.61 48.31 13.06 48.28 13.62 48.24C13.75 48.22 13.81 48.21 13.86 48.2C13.89 48.2 13.93 48.23 13.99 48.22C14.34 48.21 14.64 48.21 14.96 48.22C14.99 48.28 15.01 48.32 15.06 48.35C15.46 48.33 15.83 48.32 16.19 48.3C16.19 48.3 16.19 48.29 16.2 48.29C15.96 48.14 15.72 47.97 15.45 47.86C14.43 47.46 13.38 47.12 12.37 46.69C11.44 46.3 11.28 45.95 11.31 44.97C11.32 44.59 11.26 44.21 11.22 43.83C11.17 43.83 11.12 43.83 11.06 43.83V44.79C11 44.8 10.94 44.82 10.88 44.84C10.79 44.57 10.62 44.29 10.63 44.02C10.65 43.39 10.78 42.75 10.81 42.12C10.82 41.84 10.72 41.57 10.57 41.3C10.04 42.85 10.08 44.34 11.07 45.85C10.74 45.77 10.59 45.73 10.44 45.69C10.42 45.72 10.39 45.76 10.37 45.8C10.52 45.91 10.67 46.04 10.89 46.17L10.91 46.19C10.73 46.27 10.51 46.45 10.42 46.4C9.21998 45.68 8.08998 45.97 6.84998 46.68L6.85997 46.71Z" fill="#780000"/>
<path d="M5.90002 44.19C6.28002 44.23 6.66003 44.26 7.09003 44.29C7.31003 44.31 7.47003 44.32 7.66003 44.34C7.71003 44.41 7.73002 44.47 7.75002 44.53C7.99002 44.54 8.23003 44.56 8.55003 44.55C8.56003 44.55 8.57002 44.55 8.58002 44.54C9.00002 44.9 9.46003 45.26 9.91003 45.6C9.94003 45.56 9.98003 45.51 10.02 45.47C9.59003 45.12 9.18002 44.77 8.72002 44.4C8.72002 44.4 8.71003 44.4 8.70003 44.4C8.65003 44.34 8.60003 44.29 8.52003 44.2C8.51003 44.19 8.51003 44.18 8.51003 44.18C8.40003 43.84 7.94003 43.4 8.77003 43.35C8.83003 43.35 8.89002 43.17 8.93002 43.06C9.40002 41.86 9.04003 40.81 8.34003 39.75C8.25003 39.69 8.18003 39.69 8.10003 39.68C7.56003 40.62 7.28003 41.6 7.70003 42.76C7.78003 43.04 7.83002 43.23 7.89002 43.47C7.66002 43.42 7.53003 43.4 7.41003 43.38C7.52003 43.56 7.64002 43.75 7.83002 44.04C7.57002 43.96 7.41003 43.91 7.19003 43.87C7.08003 43.9 7.04002 43.92 7.00002 43.94C7.00002 43.94 6.97002 43.91 6.97002 43.94C6.98002 43.99 7.00003 44.01 7.01003 44.05C6.65003 44.02 6.27003 44.02 5.91003 44.02C5.91003 44.07 5.91002 44.13 5.90002 44.18V44.19ZM8.01003 42.69C7.97003 42.57 7.93003 42.44 7.88003 42.2C7.94003 41.57 8.00003 40.94 8.06003 40.3C8.91003 41.24 9.00003 42.22 8.49003 43.26C8.44003 42.83 8.40002 42.4 8.36002 41.96H8.23003C8.19003 42.2 8.15002 42.45 8.11002 42.68H8.02003L8.01003 42.69Z" fill="#780000"/>
<path d="M4.27998 43.94C5.14998 44.62 6.00998 44.96 7.09998 44.61C7.14998 44.64 7.14998 44.67 7.11998 44.78C5.84998 45.22 4.78998 44.78 3.80998 44.07C3.74998 44.02 3.74998 43.89 3.72998 43.8C3.79998 43.77 3.86998 43.75 3.95998 43.69C3.97998 43.66 3.97998 43.66 4.01998 43.65C4.13998 43.6 4.21998 43.56 4.29998 43.52C4.31998 43.52 4.33998 43.52 4.38998 43.52C4.48998 43.5 4.56998 43.48 4.65998 43.43C4.67998 43.4 4.67998 43.39 4.73998 43.4C5.38998 43.46 5.98998 43.5 6.57998 43.59C6.71998 43.61 6.81998 43.83 6.93998 43.95C6.08998 43.56 5.22998 43.52 4.28998 43.93L4.27998 43.94Z" fill="#780000"/>
<path d="M1.46997 40.77C1.78997 41.03 2.01997 41.21 2.26997 41.42C2.34997 41.49 2.40998 41.53 2.52998 41.58C2.64998 41.62 2.70997 41.65 2.75997 41.67C2.88997 41.72 3.01997 41.77 3.13997 41.83C3.13997 41.85 3.13997 41.86 3.13997 41.88C3.51997 41.92 3.89997 41.95 4.31997 42.01C4.41997 42.02 4.47997 42.02 4.57997 41.98C4.72997 41.9 4.82997 41.85 4.92997 41.8C4.92997 41.8 4.92997 41.81 4.93997 41.81C5.48997 41.54 5.76997 41.85 6.01997 42.22C6.19997 42.38 6.37997 42.53 6.55997 42.69C6.58997 42.66 6.62997 42.63 6.64997 42.6C6.56997 42.49 6.48997 42.38 6.36997 42.22C6.30997 42.15 6.29997 42.13 6.28997 42.09C6.06997 41.84 5.85997 41.6 5.63997 41.34C5.40997 41.43 5.17998 41.52 4.91998 41.67C4.33998 41.64 3.76997 41.64 3.18997 41.64C2.82997 41.4 2.46997 41.15 2.11997 40.9C2.36664 40.72 3.07997 40.6267 4.25997 40.62C3.97997 40.53 3.69997 40.43 3.37997 40.31C3.25997 40.28 3.16998 40.28 2.98997 40.29C2.73997 40.29 2.57998 40.29 2.41998 40.29C2.13998 40.42 1.86997 40.56 1.46997 40.74V40.77Z" fill="#780000"/>
<path d="M5.05001 39.11C5.02001 39 5.02001 38.97 5.04001 38.93C5.10001 38.36 5.16001 37.78 5.22001 37.21C6.02001 38.14 6.25002 39.16 5.88002 40.37C5.74002 39.9 5.61001 39.46 5.48001 39.02C5.46001 39.02 5.44002 39.01 5.42002 39.01C5.42002 39.46 5.39001 39.91 5.44001 40.36C5.45001 40.49 5.68002 40.59 5.85002 40.71C5.85002 40.7 5.86001 40.69 5.86001 40.68V40.72C5.95001 40.68 6.10001 40.66 6.12001 40.6C6.43001 39.56 6.51002 38.53 5.99002 37.48C5.96002 37.43 5.95002 37.41 5.92002 37.37C5.73002 37.13 5.56001 36.91 5.37001 36.65C5.32001 36.63 5.28002 36.63 5.21002 36.62C4.66002 37.65 4.62001 39.15 5.14001 39.72C5.11001 39.5 5.10002 39.34 5.06002 39.11H5.05001Z" fill="#780000"/>
<path d="M28.28 56.81C27.95 56.61 27.64 56.42 27.35 56.2C26.48 55.57 26.1799 54.68 26.2699 53.63C26.4099 54.81 27.0199 55.65 28.0899 56.24C28.2699 54.99 27.7799 54.04 26.9399 53.17C27.2599 53.4 27.5799 53.67 27.9499 53.98C28.0299 54.09 28.0699 54.14 28.1099 54.2C28.2999 55.03 28.6399 55.84 28.3699 56.76C28.3599 56.81 28.3 56.81 28.28 56.82V56.81Z" fill="#780000"/>
<path d="M41.56 55.47C41.47 55.46 41.39 55.45 41.21 55.44C40.95 55.45 40.78 55.46 40.61 55.47C39.87 55.45 39.14 55.43 38.37 55.44C38.19 55.46 38.03 55.44 37.85 55.41C37.85 55.3 37.87 55.21 37.89 55.13C39.11 55.09 40.33 55.05 41.55 55.03C41.76 55.03 41.98 55.08 42.29 55.13C42.99 55.18 43.59 55.22 44.19 55.25C44.58 55.5 44.13 55.53 44.09 55.52C43.77 55.5 43.45 55.43 43.13 55.4C42.88 55.38 42.62 55.41 42.27 55.43C41.97 55.45 41.77 55.45 41.56 55.46V55.47Z" fill="#780000"/>
<path d="M31.2799 56.68C30.8299 56.35 30.3599 56.08 30.0299 55.69C29.6099 55.2 29.52 54.57 29.8 53.9C29.86 54.24 29.87 54.59 29.99 54.9C30.12 55.22 30.3 55.56 30.55 55.79C30.81 56.03 31.18 56.16 31.55 56.36C31.7 55.38 31.28 54.73 30.66 54.16L30.82 54.04C31.05 54.27 31.29 54.5 31.55 54.8C31.64 54.96 31.69 55.05 31.74 55.14C31.79 55.57 31.84 56 31.88 56.48C31.69 56.58 31.51 56.63 31.29 56.68H31.2799Z" fill="#780000"/>
<path d="M36.38 55.7C36.06 55.4 35.79 55.13 35.5 54.85C35.04 54.69 34.63 54.51 34.19 54.45C33.85 54.4 33.52 54.5 33.41 54.95C33.4 54.98 33.39 55.04 33.39 55.04C33.43 55.09 33.48 55.15 33.52 55.21C33.47 55.16 33.43 55.11 33.38 55.08C33.52 55.7 33.8 56.16 34.43 56.32C34.67 56.5 34.92 56.62 35.17 56.69C36.32 57.03 36.55 56.85 36.39 55.7H36.38ZM34.03 54.69C34.05 54.75 34.03 54.76 34 54.76C34.01 54.73 34.02 54.71 34.03 54.69ZM36.16 56.46C35.65 56.37 35.15 56.28 34.59 56.17C34.58 56.17 34.56 56.17 34.56 56.17C34.29 55.92 34.03 55.68 33.7 55.38C33.7 55.38 33.69 55.36 33.68 55.35C33.69 55.26 33.68 55.15 33.68 54.97C33.9 55.06 34.06 55.12 34.27 55.21C34.21 55.03 34.16 54.89 34.05 54.58C34.55 54.75 34.94 54.88 35.38 55.01C35.66 55.46 35.96 55.87 36.26 56.3C36.22 56.35 36.19 56.4 36.15 56.46H36.16Z" fill="#780000"/>
<path d="M27.86 49.58C27.52 49.55 27.17 49.52 26.78 49.49C26.69 49.49 26.65 49.47 26.59 49.46C26.45 49.47 26.31 49.49 26.09 49.46C25.56 49.31 25.13 49.19 25.06 48.61C25.06 48.58 24.96 48.57 24.91 48.59C24.91 48.66 24.9 48.69 24.9 48.77C24.81 49.2 24.72 49.58 24.62 49.96C24.57 49.96 24.53 49.94 24.49 49.93C24.64 50.15 24.79 50.37 24.89 50.5C24.69 50.77 24.56 50.99 24.4 51.18C24.16 51.47 23.91 51.75 23.66 52.04C23.57 52.13 23.38 52.2 23.35 52.3C23.25 52.66 23.07 52.72 22.74 52.59C22.54 52.52 22.31 52.54 22.11 52.53C21.79 52.69 21.47 52.86 21.13 53.06C21.13 53.28 21.1 53.39 21.02 53.45C21.07 53.39 21.09 53.27 21.07 53.09C20.98 52.93 20.93 52.78 20.85 52.66C20.47 53.02 20.13 52.97 19.78 52.69C19.48 52.46 19.17 52.25 18.86 52.08C19.26 52.47 19.67 52.82 20.06 53.18C20.13 53.24 20.17 53.34 20.26 53.43H20.24C19.34 53.73 18.81 54.61 19.13 55.44C19.13 55.44 19.2 55.5 19.29 55.57C19.72 55.81 19.52 55.97 19.34 56.19C18.74 56.95 19.02 57.71 19.62 58.2C20.1 58.59 20.96 58.38 21.35 57.81C21.37 57.81 21.38 57.81 21.4 57.8C21.49 57.93 21.56 58.07 21.58 58.21C21.69 59.09 22.6 59.59 23.37 59.16C24.15 58.74 24.33 58.14 24.04 57.25C24.42 57.08 24.78 56.93 25.13 56.77L25.21 56.75C25.27 56.59 25.33 56.43 25.41 56.19C25.43 56.06 25.44 56.01 25.46 55.91C25.43 55.5 25.39 55.13 25.36 54.76L25.22 54.78C25.14 55.35 25.06 55.92 24.99 56.53C24.99 56.55 25.01 56.56 25.02 56.58C25.02 56.57 25.01 56.56 24.99 56.55C24.32 57.12 23.74 56.71 23.1 56.38C23.37 56.82 23.65 57.15 23.79 57.53C24.07 58.27 23.47 58.58 22.97 58.87C22.84 58.94 22.51 58.87 22.41 58.76C22.16 58.46 21.99 58.09 21.76 57.75C21.63 57.76 21.52 57.79 21.45 57.8C21.54 57.79 21.64 57.75 21.77 57.71C21.93 57.32 22.04 56.97 22.2 56.48C22.42 56.84 22.56 57.05 22.69 57.26C22.64 56.59 22.89 56.13 23.49 55.84C23.29 55.71 23.13 55.6 22.96 55.5C23.39 54.76 23.99 54.41 24.88 54.45C24.71 54.31 24.59 54.2 24.45 54.09C24.81 53.46 24.99 52.79 24.63 52.13C24.4 51.7 24.56 51.36 24.82 51.14C25.2 50.82 25.68 50.62 26.12 50.38C26.61 50.18 27.09 49.98 27.62 49.77C27.71 49.75 27.75 49.73 27.84 49.7C27.9 49.66 27.91 49.63 27.92 49.6C27.92 49.6 27.89 49.58 27.88 49.58H27.86ZM22.54 56.03C22.48 56.14 22.27 56.16 22.13 56.21C21.95 55.99 21.79 55.8 21.8 55.62C21.81 55.49 22.04 55.3 22.19 55.27C22.3 55.24 22.55 55.38 22.59 55.51C22.65 55.66 22.62 55.89 22.54 56.04V56.03ZM23.72 54.18C23.54 54.33 23.46 54.44 23.37 54.55C23.15 54.75 23 54.93 22.85 55.12C22.73 54.98 22.6 54.84 22.47 54.7C22.46 54.7 22.44 54.7 22.42 54.71C22.41 54.72 22.39 54.74 22.38 54.76C22.19 54.83 22.06 54.86 21.93 54.88C21.85 54.79 21.83 54.77 21.82 54.75C21.67 54.55 21.54 54.4 21.39 54.24C21.36 54.25 21.34 54.27 21.31 54.29C21.44 54.57 21.57 54.84 21.67 55.07C21.48 55.49 21.32 55.87 21.13 56.3H21.93C21.93 56.3 22.02 56.39 22.06 56.44C21.69 56.93 21.37 57.47 20.93 57.9C20.59 58.25 20.12 58.08 20.05 57.62C19.89 57.63 19.73 57.65 19.57 57.66C19.59 56.7 19.95 56.0967 20.65 55.85C20.28 55.68 19.77 55.6 19.59 55.32C19.43 55.06 19.51 54.52 19.68 54.21C20 53.63 20.58 53.6 21.23 54.08C21.16 53.31 21.54 52.8 22.22 52.83C22.69 52.84 23.35 52.86 23.56 53.53C23.65 53.68 23.71 53.75 23.77 53.82C24.31 53.28 23.54 53.06 23.44 52.65C23.69 52.52 23.92 52.4 24.16 52.28C24.66 53.03 24.39 54.09 23.7 54.19L23.72 54.18ZM25.41 50.34C25.35 50.37 25.17 50.1 25.05 49.98C25.21 49.76 25.36 49.53 25.5 49.54C25.64 49.55 25.77 49.8 25.9 49.95C25.74 50.08 25.59 50.27 25.41 50.34Z" fill="#780000"/>
<path d="M38.5201 53.59C38.38 53.59 38.29 53.59 38.11 53.58C37.53 53.58 37.06 53.58 36.58 53.58C36.5 53.58 36.42 53.56 36.3 53.56C36.34 53.5 36.42 53.38 36.5 53.38C37.47 53.37 38.44 53.38 39.42 53.42C39.14 53.47 38.85 53.53 38.53 53.59H38.5201Z" fill="#780000"/>
<path d="M43.11 52.72C42.19 52.75 41.24 52.75 40.24 52.72C40.24 52.72 40.24 52.7167 40.24 52.71C39.67 52.74 39.09 52.74 38.52 52.74V52.53C38.75 52.53 38.99 52.53 39.27 52.53C39.6 52.53 39.88 52.53 40.19 52.56C40.18 52.56 40.19 52.53 40.19 52.53C40.91 52.55 41.61 52.57 42.38 52.6C42.66 52.65 42.87 52.68 43.12 52.74L43.11 52.72Z" fill="#780000"/>
<path d="M70.86 53.6C70.76 53.6 70.7 53.59 70.61 53.59C70.41 53.59 70.24 53.57 69.99 53.56C69.81 53.54 69.73 53.53 69.64 53.51C69.67 53.49 69.68 53.47 69.69 53.42C69.81 53.39 69.89 53.38 69.98 53.37L73.11 53.57V53.73C72.38 53.69 71.64 53.64 70.86 53.61V53.6Z" fill="#780000"/>
<path d="M70.81 50.76C70.24 50.76 69.73 50.76 69.22 50.76C70.62 50.38 72.03 50.55 73.45 50.68C73.02 50.71 72.6 50.74 72.17 50.75C71.74 50.76 71.3 50.75 70.81 50.75V50.76Z" fill="#780000"/>
<path d="M67.19 51.67C67.35 51.69 67.46 51.71 67.59 51.78C67.59 51.82 67.57 51.82 67.46 51.83C67.25 51.84 67.12 51.85 66.99 51.86C66 51.85 65 51.83 64.01 51.82C64 51.82 63.98 51.81 63.97 51.8C64 51.77 64.03 51.73 64.15 51.7C64.89 51.7 65.52 51.68 66.16 51.67C66.48 51.67 66.8 51.68 67.18 51.68L67.19 51.67Z" fill="#780000"/>
<path d="M38.14 47.21C38.14 47.21 38.14 47.21 38.14 47.22C38.09 47.22 38.05 47.22 38.01 47.22C38.04 47.22 38.08 47.22 38.14 47.21Z" fill="#780000"/>
<path d="M47.2199 43.07C46.3999 42.1 45.6099 41.15 45.1899 40.04L48.5899 44.32L48.5599 44.37C48.1199 43.95 47.6799 43.52 47.2099 43.07H47.2199Z" fill="#780000"/>
<path d="M56.0601 45.72C56.8401 45.9 57.6201 46.13 58.4101 46.35L58.3501 46.53C57.5801 46.29 56.7501 46.29 56.0601 45.72Z" fill="#780000"/>
<path d="M65.96 49.55C65.79 49.55 65.64 49.52 65.39 49.49C65.59 49.39 65.69 49.33 65.84 49.25C66.18 49.18 66.49 49.13 66.84 49.06C67.34 48.96 67.79 48.89 68.25 48.82L68.28 48.97C67.58 49.13 66.88 49.3 66.14 49.49C66.06 49.52 66.02 49.53 65.95 49.55H65.96Z" fill="#780000"/>
<path d="M73.97 44.44C73.84 44.61 73.7 44.78 73.5 44.93C73.5 44.93 73.49 44.93 73.48 44.93C73.36 45.83 72.67 46.25 72.12 46.81C72.11 46.81 72.1 46.81 72.09 46.82C71.73 47.14 71.31 47.45 70.84 47.74C70.71 47.69 70.63 47.67 70.56 47.65C70.54 47.62 70.53 47.58 70.48 47.48L70.46 47.44C70.26 47.51 70.04 47.55 69.83 47.6C69.82 47.55 69.8 47.51 69.78 47.46C69.96 47.4 70.13 47.33 70.33 47.24C70.36 47.23 70.38 47.22 70.4 47.21C70.96 46.88 71.48 46.58 72 46.27C72.07 46.23 72.08 46.11 72.11 46.02C72.11 46.02 72.12 46.04 72.14 46.06C72.22 46.04 72.29 45.97 72.38 45.86C72.41 45.81 72.47 45.78 72.53 45.74C72.46 45.77 72.39 45.8 72.34 45.85C72.23 45.92 72.17 45.95 72.12 46C71.99 46.03 71.86 46.06 71.68 46.1C71.1 46.36 70.55 46.61 70 46.85C69.9 46.85 69.8 46.85 69.66 46.85C69.83 46.73 70.04 46.61 70.28 46.47C70.76 46.25 71.2 46.07 71.68 45.89H71.69C71.92 45.71 72.16 45.57 72.44 45.43C72.53 45.4 72.56 45.36 72.59 45.32C72.7 45.25 72.81 45.17 72.97 45.13C73 45.16 73.02 45.19 73.04 45.21C73.05 45.23 73.06 45.24 73.07 45.26C73.06 45.23 73.05 45.19 73.04 45.16C73.04 45.13 73.03 45.11 73.02 45.09C73.11 45.01 73.2 44.93 73.31 44.83C73.37 44.78 73.43 44.72 73.49 44.66C73.6 44.55 73.72 44.45 73.83 44.34C73.87 44.37 73.91 44.41 73.95 44.45L73.97 44.44Z" fill="#780000"/>
<path d="M51.86 43.93C52.35 44.1 52.86 44.3 53.37 44.5L53.28 44.7C52.81 44.45 52.35 44.21 51.87 43.92L51.86 43.93Z" fill="#780000"/>
<path d="M48.19 42.64C48.19 42.64 48.12 42.71 48.09 42.75C47.81 42.46 47.54 42.18 47.27 41.82L47.25 41.8C47.1 41.69 46.98 41.53 46.86 41.38C46.89 41.35 46.93 41.31 46.97 41.28C47.08 41.39 47.19 41.52 47.31 41.67C47.6 41.99 47.89 42.32 48.18 42.64H48.19Z" fill="#780000"/>
<path d="M49.79 42.36C49.79 42.36 49.72 42.45 49.68 42.5C49.36 42.24 49.03 41.99 48.72 41.68C48.65 41.67 48.61 41.64 48.54 41.59C48.54 41.59 48.53 41.59 48.52 41.58C48.14 41.21 47.76 40.84 47.4 40.41C47.31 40.35 47.23 40.27 47.16 40.15C47.1 40.15 47.07 40.12 47.07 40.06C47.01 40.06 46.98 40.04 46.96 39.98C46.9 39.95 46.83 39.91 46.65 39.79C46.89 39.82 46.95 39.83 47.03 39.89C47.03 39.89 47.1 39.92 47.14 39.96C47.14 39.96 47.2 40.01 47.24 40.06C47.31 40.13 47.37 40.19 47.46 40.29L47.49 40.32C47.87 40.69 48.24 41.06 48.6 41.48C48.68 41.49 48.73 41.53 48.78 41.59C49.11 41.86 49.44 42.12 49.77 42.37L49.79 42.36Z" fill="#780000"/>
<path d="M47.5 40.31L47.47 40.28C47.47 40.28 47.49 40.29 47.5 40.31Z" fill="#780000"/>
<path d="M46.64 44.19C45.76 44.84 44.87 45.55 43.89 46.11C43.1 46.56 42.2101 46.84 41.3201 47.2C41.3201 47.2 41.31 47.2 41.3 47.2C40.01 47.54 38.7401 47.99 37.4301 48.21C35.7901 48.49 34.12 48.41 32.53 47.94C31.65 47.68 30.82 47.25 29.95 46.85C29.93 46.78 29.9301 46.73 29.9301 46.66V46.62C30.5701 46.82 31.2101 47.07 31.9301 47.31C32.0601 47.31 32.12 47.31 32.17 47.31C32.2 47.31 32.22 47.31 32.33 47.34C32.95 47.42 33.4901 47.48 34.0701 47.54C34.1401 47.54 34.19 47.55 34.23 47.55C34.34 47.61 34.45 47.71 34.56 47.73C36.64 48.16 38.6501 47.86 40.6301 47.17C40.7801 47.12 40.93 47.09 41.17 47.07C42.82 46.16 44.5001 45.28 46.1801 44.39C46.3201 44.32 46.4601 44.26 46.6501 44.2L46.64 44.19Z" fill="#780000"/>
<path d="M40.64 50.16C40.36 50.28 40.04 50.47 39.71 50.48C38.62 50.53 37.53 50.51 36.39 50.51C36.23 50.43 36.13 50.34 36.01 50.3C35.85 50.25 35.68 50.23 35.51 50.07C35.61 50.04 35.71 50.02 35.88 49.95C36.28 49.95 36.6 49.99 36.93 50.03L36.47 50.21C37.66 50.21 38.72 50.21 39.77 50.21C40.04 50.21 40.32 50.17 40.64 50.16Z" fill="#780000"/>
<path d="M39.87 48.73C40.04 48.61 40.23 48.47 40.44 48.39C40.89 48.23 41.35 48.1 41.81 47.96L41.87 48.14C41.21 48.34 40.56 48.53 39.87 48.72V48.73Z" fill="#780000"/>
<path d="M43.72 48.2C43.21 48.46 42.71 48.71 42.15 48.98C42.07 49 42.02 49.01 41.95 49.02C41.23 49.24 40.53 49.45 39.76 49.67C39.78 49.57 39.83 49.39 39.92 49.36C40.43 49.22 40.95 49.1 41.53 48.97C41.62 48.95 41.64 48.94 41.66 48.92C41.71 48.9 41.77 48.88 41.87 48.9C42.42 48.61 42.98 48.36 43.6 48.14C43.68 48.17 43.69 48.19 43.71 48.2H43.72Z" fill="#780000"/>
<path d="M43.08 49.64C42.69 49.77 42.3401 49.88 41.9901 49.99L41.9301 49.8L43.61 49.22L43.6801 49.41C43.4901 49.48 43.3001 49.55 43.0701 49.64H43.08Z" fill="#780000"/>
<path d="M38.64 49.16C37.36 49.2 36.08 49.23 34.74 49.27C34.19 49.16 33.68 49.06 33.17 48.95C32.62 49.12 32.39 48.51 31.98 48.51C31.99 48.45 32.01 48.39 32.03 48.33C32.31 48.42 32.59 48.51 32.91 48.63C33.07 48.7 33.19 48.74 33.42 48.83C33.37 48.86 33.31 48.89 33.26 48.91H38.62C38.62 48.99 38.62 49.08 38.62 49.16H38.64Z" fill="#780000"/>
<path d="M39.75 49.63C39.71 49.68 39.68 49.68 39.66 49.69C39.67 49.69 39.66 49.73 39.64 49.76C39.64 49.78 39.59 49.76 39.57 49.76C39.57 49.76 39.57 49.75 39.57 49.74C39.56 49.74 39.55 49.74 39.54 49.75C39.45 49.75 39.36 49.76 39.21 49.75C39.19 49.75 39.18 49.75 39.16 49.75C39.16 49.77 39.14 49.78 39.09 49.79C39.09 49.79 39.09 49.78 39.09 49.77C39.08 49.77 39.07 49.77 39.06 49.79C38.67 49.84 38.28 49.88 37.81 49.92C37.66 49.92 37.59 49.94 37.53 49.95C37.37 49.98 37.2 50 36.98 50.02C36.6 49.98 36.27 49.94 35.89 49.9C35.06 49.79 34.28 49.66 33.5 49.54L33.52 49.46C35.17 49.53 36.81 49.59 38.53 49.65C38.64 49.65 38.66 49.65 38.69 49.63C39.06 49.6 39.43 49.58 39.75 49.62V49.63Z" fill="#780000"/>
<path d="M61.51 29.21C61.26 29.14 61.05 29.07 60.84 29.01L60.87 28.85C61.21 28.9 61.57 28.92 61.9 29.01C64.4 29.7 66.79 30.64 68.94 32.12C69.12 32.25 69.25 32.45 69.4 32.66C67 31.04 64.38 29.9 61.51 29.21Z" fill="#780000"/>
<path d="M72.35 36.24L72.48 36.55L72.41 36.6C71.63 35.84 70.85 35.08 70.03 34.3C69.82 34.17 69.65 34.07 69.49 33.96L69.67 33.76C69.91 33.92 70.16 34.08 70.44 34.26C70.91 34.7 71.36 35.11 71.85 35.59C72.06 35.84 72.21 36.04 72.37 36.24H72.35Z" fill="#780000"/>
<path d="M63.97 30.94C63.23 30.7 62.52 30.47 61.78 30.24C61.5 30.17 61.26 30.09 61.03 30.01C61.7 29.85 64.14 30.55 65.03 31.24C64.69 31.14 64.35 31.04 63.97 30.94Z" fill="#780000"/>
<path d="M56.28 29.27C56.27 29 56.26 28.77 56.23 28.51C56.23 28.39 56.26 28.3 56.33 28.2C56.47 28.3 56.56 28.4 56.65 28.51C56.7 28.67 56.75 28.82 56.83 29.03C56.86 29.08 56.89 29.1 56.89 29.1L56.72 29.53C56.58 29.46 56.43 29.38 56.27 29.26L56.28 29.27Z" fill="#780000"/>
<path d="M59.71 28.53C59.99 28.59 60.22 28.65 60.46 28.71L60.44 28.88C59.97 28.81 59.5 28.75 58.98 28.68C58.5 28.62 58.06 28.55 57.63 28.49V28.4C58.11 28.4 58.58 28.4 59.13 28.42C59.28 28.45 59.34 28.47 59.41 28.48C59.5 28.49 59.59 28.51 59.73 28.52L59.71 28.53Z" fill="#780000"/>
<path d="M61.58 31.49C61.49 31.49 61.44 31.46 61.33 31.41C61.2 31.38 61.13 31.37 61.06 31.37C60.84 31.07 61.07 31.12 61.24 31.15C61.85 31.28 62.45 31.43 63.11 31.57C62.88 31.58 62.6 31.61 62.32 31.59C62.09 31.58 61.86 31.52 61.59 31.49H61.58Z" fill="#780000"/>
<path d="M66.72 31.88C67.35 32.23 67.94 32.55 68.53 32.87L68.44 33.04L66.4301 31.93L66.45 31.84C66.53 31.84 66.6 31.84 66.72 31.87V31.88Z" fill="#780000"/>
<path d="M53.44 32.55C53.47 31.99 53.53 31.43 53.53 30.87C53.53 30.46 53.4401 30.05 53.4001 29.65L53.55 29.62C53.61 29.96 53.6801 30.3 53.7601 30.68C53.9201 32.33 53.74 33.92 53.34 35.46C52.89 37.16 52.09 38.71 51.11 40.17L50.9301 40.11C50.9801 39.93 51.01 39.75 51.09 39.58C51.56 38.61 52.0501 37.65 52.5701 36.62C53.1301 35.27 53.3501 33.92 53.4601 32.55H53.44Z" fill="#780000"/>
<path d="M54.97 31.36C55.05 31.78 55.13 32.19 55.22 32.64C55.31 34.17 55.32 35.66 54.63 37.06C54.67 36.87 54.71 36.69 54.75 36.5C54.79 36.29 54.83 36.07 54.88 35.77C54.93 34.72 55 33.77 54.97 32.81C54.96 32.41 54.75 32.01 54.63 31.61C54.63 31.61 54.63 31.62 54.67 31.58C54.6 31.25 54.5 30.96 54.39 30.67C54.53 30.8 54.68 30.94 54.85 31.14C54.91 31.25 54.94 31.29 54.97 31.34C54.97 31.34 54.96 31.36 54.97 31.37V31.36Z" fill="#780000"/>
<path d="M54.4799 35.27L54.1099 36.27L53.9399 36.24C54.4499 34.53 54.4799 32.8 54.3399 31.04C54.4499 31.22 54.5499 31.42 54.6399 31.62C54.6399 31.62 54.6399 31.61 54.6399 31.66C54.6799 32.19 54.7999 32.68 54.7699 33.16C54.7299 33.87 54.5899 34.58 54.4899 35.28L54.4799 35.27Z" fill="#780000"/>
<path d="M55.71 35.72C55.59 36.33 55.46 36.89 55.34 37.45L55.2 37.41C55.29 36.77 55.42 36.13 55.46 35.48C55.51 34.83 55.47 34.17 55.52 33.5C55.83 34.18 55.69 34.93 55.71 35.71V35.72Z" fill="#780000"/>
<path d="M34.61 52.09C34.61 52.09 34.66 52.16 34.68 52.18C34.77 52.45 34.94 52.76 34.47 52.76C34.45 52.62 34.48 52.42 34.42 52.37C34.31 52.3 34.12 52.29 34 52.35C33.62 52.54 33.27 52.77 32.85 53.01C32.79 53.04 32.75 53.07 32.72 53.07C32.68 53.08 32.66 53.1 32.62 53.11C32.57 53.11 32.55 53.12 32.53 53.13L30.98 53.29V53.21L33.85 52.21C32.41 51.19 31.03 51.66 29.89 53.04L31.09 53.49V53.61C30.82 53.61 30.57 53.61 30.31 53.67C30.28 53.74 30.26 53.76 30.25 53.78C29.82 53.16 29.12 53.18 28.43 53.03C28.38 53.03 28.39 53.03 28.39 53.03C28.49 52.97 28.61 52.85 28.7 52.86C29.01 52.9 29.32 52.98 29.64 53.05C30.08 52.24 30.81 51.76 31.6 51.44C32.39 51.12 33.19 51.44 33.94 51.73C34.17 51.82 34.37 51.99 34.61 52.13V52.09Z" fill="#780000"/>
<path d="M30.58 52.68C31.04 52.52 31.45 52.38 31.87 52.23L31.93 52.42L30.34 52.99L30.29 52.88C30.37 52.82 30.45 52.76 30.58 52.68Z" fill="#780000"/>
<path d="M28.85 43.85L28.83 43.88C28.83 43.88 28.83 43.86 28.84 43.85H28.85Z" fill="#780000"/>
<path d="M47.64 30.17C47.64 30.17 47.62 30.25 47.58 30.29C47.52 30.37 47.5101 30.41 47.4901 30.45C47.4301 30.48 47.38 30.51 47.3 30.51C47.39 30.36 47.5201 30.25 47.6501 30.18L47.64 30.17Z" fill="#780000"/>
<path d="M69.1801 48.5C69.3701 48.35 69.59 48.21 69.84 48.05C69.96 47.98 70.0501 47.95 70.1801 47.94C70.2201 48.02 70.22 48.08 70.22 48.13C69.89 48.26 69.5501 48.39 69.1801 48.5Z" fill="#780000"/>
<path d="M83.65 48.1C83.81 48.1 83.93 48.1 84.04 48.1L84.06 48.19L82.72 48.67L82.64 48.48C82.96 48.35 83.28 48.23 83.64 48.1H83.65Z" fill="#780000"/>
<path d="M30.97 49.86C30.75 49.89 30.53 49.95 30.32 49.93C29.5 49.84 29.27 50.03 29.3 50.84C29.32 51.27 28.89 51.74 28.34 51.9C27.89 52.03 27.44 52.17 27.08 52.28C27.07 52.48 27.05 52.63 26.97 52.76C26.84 52.76 26.77 52.77 26.7 52.79C26.66 52.79 26.63 52.77 26.59 52.68C26.59 52.63 26.58 52.58 26.56 52.52C26.56 52.56 26.56 52.6 26.57 52.65C26.46 52.64 26.35 52.58 26.23 52.45C26.2 52.36 26.19 52.33 26.17 52.3C26.12 52.29 26.06 52.27 25.97 52.27C25.84 52.15 25.73 52.02 25.62 51.86C25.62 51.72 25.62 51.62 25.73 51.49C25.86 51.48 25.91 51.49 25.95 51.49C25.77 51.85 26.03 51.92 26.35 52.01C26.43 52.05 26.45 52.06 26.48 52.05C26.51 52.19 26.53 52.33 26.56 52.48C26.54 52.32 26.53 52.18 26.53 52.04C27.23 51.85 27.9 51.69 28.54 51.46C28.71 51.41 28.89 51.16 28.92 50.98C28.95 50.85 28.73 50.68 28.68 50.6C28.91 50.28 29.13 49.98 29.34 49.68C29.47 49.66 29.59 49.65 29.76 49.62C29.86 49.62 29.92 49.62 30.06 49.63C30.31 49.63 30.47 49.63 30.63 49.61C30.74 49.65 30.85 49.68 30.96 49.72C30.96 49.77 30.97 49.81 30.98 49.85L30.97 49.86Z" fill="#780000"/>
<path d="M72.65 44.15C72.65 44.15 72.64 44.15 72.64 44.12C72.64 44.11 72.64 44.12 72.64 44.11V44.15H72.65Z" fill="#780000"/>
<path d="M73.62 36.93C73.62 36.93 73.53 36.88 73.46 36.82C73.46 36.82 73.46 36.82 73.45 36.82C73.34 36.66 73.23 36.5 73.11 36.3C73.08 36.25 73.04 36.19 72.99 36.11C72.79 35.87 72.62 35.65 72.41 35.42C72.15 35.14 71.94 34.87 71.73 34.54C71.76 34.46 71.78 34.45 71.79 34.43C72.26 35 72.72 35.56 73.17 36.18L73.19 36.2C73.31 36.35 73.43 36.51 73.52 36.73C73.57 36.78 73.59 36.85 73.63 36.93H73.62Z" fill="#780000"/>
<path d="M46.27 26.35C42.11 26.7 38.62 28.58 35.33 31.01C35.26 31.14 35.18 31.21 35.08 31.3C34.86 31.47 34.65 31.64 34.43 31.81C34.4 31.78 34.38 31.74 34.34 31.7C34.54 31.53 34.72 31.36 34.97 31.2C35.04 31.08 35.13 30.99 35.25 30.88H35.26C38.34 28.19 43.89 25.87 46.25 26.34L46.27 26.35Z" fill="#780000"/>
<path d="M42.7 27.73C40.6 28.62 38.6401 29.74 36.7601 31.1C36.6401 31.21 36.5 31.29 36.36 31.38C36.34 31.34 36.32 31.31 36.3 31.27C36.39 31.2 36.5001 31.14 36.6201 31.05C38.4301 29.54 40.4101 28.34 42.7101 27.72C42.7101 27.72 42.7101 27.7233 42.7101 27.73H42.7Z" fill="#780000"/>
<path d="M45.3 27.17C44.44 27.37 43.57 27.58 42.71 27.79C42.71 27.77 42.7 27.75 42.7 27.73C42.7 27.73 42.7 27.7267 42.7 27.72C42.7 27.72 42.67 27.62 42.66 27.57C43.26 27.42 43.86 27.28 44.52 27.12C44.8 27.08 45.05 27.05 45.29 27.01C45.29 27.06 45.3 27.12 45.32 27.17H45.3Z" fill="#780000"/>
<path d="M34.76 34.19L35.94 32.97L36.15 33.18C35.74 33.54 35.34 33.91 34.87 34.26C34.8 34.23 34.78 34.21 34.76 34.19Z" fill="#780000"/>
<path d="M34.17 32.02C33.9 32.28 33.6201 32.53 33.2901 32.78C33.2101 32.75 33.1901 32.74 33.1801 32.72C33.4501 32.47 33.71 32.21 34.05 31.97C34.14 32 34.1601 32.01 34.1801 32.03L34.17 32.02Z" fill="#780000"/>
<path d="M38.68 31.04C38.68 31.04 38.66 31.05 38.65 31.07C38.66 31.07 38.67 31.06 38.68 31.05V31.04Z" fill="#780000"/>
<path d="M32.6 33.45L32.16 34.02L32.03 33.93C32.17 33.76 32.31 33.59 32.5 33.42C32.55 33.42 32.59 33.46 32.59 33.46L32.6 33.45Z" fill="#780000"/>
<path d="M39.6 30.59C39.34 30.77 39.1 30.94 38.79 31.1C38.7 31.21 38.59 31.29 38.47 31.37C38.45 31.34 38.42 31.32 38.4 31.29C38.47 31.22 38.56 31.15 38.66 31.07C38.66 31.06 38.68 31.05 38.69 31.04C38.94 30.86 39.19 30.7 39.49 30.55C39.49 30.55 39.49 30.55 39.5 30.55C39.56 30.52 39.63 30.5 39.71 30.48C39.68 30.51 39.66 30.55 39.6 30.61V30.59Z" fill="#780000"/>
<path d="M38.27 31.47C38.07 31.61 37.87 31.75 37.61 31.87C37.54 31.9 37.45 31.89 37.35 31.89C37.39 31.86 37.43 31.83 37.51 31.79C37.73 31.64 37.95 31.49 38.17 31.33C38.2 31.38 38.23 31.42 38.26 31.46L38.27 31.47Z" fill="#780000"/>
<path d="M51.7701 32.31C50.9601 32.59 50.25 32.83 49.5 33.07C48.69 33.72 47.8701 34.37 47.0401 35.04C47.0101 35.04 46.9901 35.04 46.9601 35.04C46.9501 35.04 46.93 35.03 46.92 35.01C47.43 34.44 47.9401 33.87 48.5101 33.36C48.7601 33.13 49.1101 33.01 49.4601 32.87C50.2201 32.33 51.16 32.07 51.78 32.3L51.7701 32.31Z" fill="#780000"/>
<path d="M73.09 45.25C73.09 45.25 73.08 45.22 73.06 45.2C73.06 45.18 73.04 45.15 73.03 45.13C73.02 45.1 73.03 45.1 73.03 45.09C73.04 45.11 73.05 45.14 73.06 45.16C73.07 45.19 73.08 45.23 73.09 45.26V45.25Z" fill="#780000"/>
<path d="M26.26 50.78C26.57 50.51 26.91 50.27 27.26 50.05C27.26 50.05 27.38 50.21 27.45 50.34C27.24 50.64 27.03 50.89 26.83 51.15V50.52C26.62 50.64 26.46 50.73 26.27 50.78H26.26Z" fill="#780000"/>
</svg>
